0
SECTION
2
HEADER
9
$INSUNITS
70
4
9
$ACADVER
1
AC1014
9
$HANDSEED
5
FFFF
0
ENDSEC
0
SECTION
2
TABLES
0
TABLE
2
VPORT
5
8
100
AcDbSymbolTable
0
ENDTAB
0
TABLE
2
LTYPE
5
5
100
AcDbSymbolTable
0
LTYPE
5
14
100
AcDbSymbolTableRecord
100
AcDbLinetypeTableRecord
2
BYBLOCK
70
0
0
LTYPE
5
15
100
AcDbSymbolTableRecord
100
AcDbLinetypeTableRecord
2
BYLAYER
70
0
0
ENDTAB
0
TABLE
2
LAYER
5
2
100
AcDbSymbolTable
70
2
0
LAYER
5
50
100
AcDbSymbolTableRecord
100
AcDbLayerTableRecord
2
0
70
0
6
CONTINUOUS
0
ENDTAB
0
TABLE
2
STYLE
5
3
100
AcDbSymbolTable
70
1
0
STYLE
5
11
100
AcDbSymbolTableRecord
100
AcDbTextStyleTableRecord
2
STANDARD
70
0
0
ENDTAB
0
TABLE
2
VIEW
5
6
100
AcDbSymbolTable
70
0
0
ENDTAB
0
TABLE
2
UCS
5
7
100
AcDbSymbolTable
70
0
0
ENDTAB
0
TABLE
2
APPID
5
9
100
AcDbSymbolTable
70
2
0
APPID
5
12
100
AcDbSymbolTableRecord
100
AcDbRegAppTableRecord
2
ACAD
70
0
0
ENDTAB
0
TABLE
2
DIMSTYLE
5
A
100
AcDbSymbolTable
70
1
0
ENDTAB
0
TABLE
2
BLOCK_RECORD
5
1
100
AcDbSymbolTable
70
1
0
BLOCK_RECORD
5
1F
100
AcDbSymbolTableRecord
100
AcDbBlockTableRecord
2
*MODEL_SPACE
0
BLOCK_RECORD
5
1B
100
AcDbSymbolTableRecord
100
AcDbBlockTableRecord
2
*PAPER_SPACE
0
ENDTAB
0
ENDSEC
0
SECTION
2
BLOCKS
0
BLOCK
5
20
100
AcDbEntity
100
AcDbBlockBegin
2
*MODEL_SPACE
0
ENDBLK
5
21
100
AcDbEntity
100
AcDbBlockEnd
0
BLOCK
5
1C
100
AcDbEntity
100
AcDbBlockBegin
2
*PAPER_SPACE
0
ENDBLK
5
1D
100
AcDbEntity
100
AcDbBlockEnd
0
ENDSEC
0
SECTION
2
ENTITIES
0
LWPOLYLINE
5
100
100
AcDbEntity
8
0
100
AcDbPolyline
90
6
70
1
43
0.0
10
102.84136701658851
20
132.88382389042664
42
0.3385924041867423
10
72.922618070052849
20
155.76788516011493
10
47.077381929947116
20
155.76788516011496
42
0.3385924041867428
10
17.158632983411579
20
132.88382389042667
42
0.4941067898970265
10
20.053995784689207
20
129.09841046491266
10
99.946004215310836
20
129.09841046491255
42
0.49410678989703777
0
LWPOLYLINE
5
101
100
AcDbEntity
8
0
100
AcDbPolyline
90
7
70
1
43
0.0
10
50.000797355809787
20
-3.5441346966876703
10
50.000797355809787
20
16.455865952567557
10
60.000732390537756
20
16.45586595256756
42
-0.41420808012951316
10
66.250756661549119
20
10.205970779691738
42
-0.41421412995970242
10
60.000732390537763
20
3.9559465086803614
10
57.500748722210425
20
3.9559465086803951
10
57.500748722210425
20
-3.5441346966876703
0
LWPOLYLINE
5
102
100
AcDbEntity
8
0
100
AcDbPolyline
90
3
70
1
43
0.0
10
70.000795245622498
20
3.9559465086803951
10
70.000858683572062
20
-3.5440771660162436
10
62.500846259251112
20
-3.5310863975340112
42
-0.41370385709392565
0
LWPOLYLINE
5
103
100
AcDbEntity
8
0
100
AcDbPolyline
90
4
70
1
43
0.0
10
115
20
-11.259740236093627
10
112
20
-11.259740236093609
10
112
20
-2.2253616982034785
10
115
20
-2.2253616982034958
0
LWPOLYLINE
5
104
100
AcDbEntity
8
0
100
AcDbPolyline
90
4
70
1
43
0.0
10
7.9999999999999982
20
-11.259740236093609
10
5
20
-11.259740236093627
10
5
20
-2.2253616982034963
10
7.9999999999999982
20
-2.2253616982034781
0
LWPOLYLINE
5
105
100
AcDbEntity
8
0
100
AcDbPolyline
90
62
70
1
43
0.0
10
112.53040486970519
20
130.35565974695066
42
0.37373468883298888
10
72.922618070052863
20
164.76788516011496
10
47.077381929947137
20
164.76788516011496
42
0.37373468883298949
10
7.4695951302948105
20
130.35565974695072
10
2.6304870766844957
20
96.054641137605472
10
-0.34009693328941104
20
96.473724231618121
10
1.6156241721030717
20
110.33644961149641
10
-1.3549598378708261
20
110.75553270550913
42
0.41421356237309703
10
-4.7446269418574456
20
108.20403178954783
10
-7.8179029646170761
20
86.419749049739082
42
0.41421356237309764
10
-5.2664020486558281
20
83.030081945752443
10
0.67476597129201288
20
82.191915757727116
10
-5.471786074227234
20
38.623350278109569
10
-8.4423700842011495
20
39.042433372122218
10
-6.4866489788086756
20
52.90515875200056
10
-9.4572329887825823
20
53.324241846013209
42
0.41421356237309492
10
-12.846900092769191
20
50.772740930051953
10
-15.920176115528824
20
28.9884581902432
42
0.41421356237309503
10
-13.368675199567583
20
25.59879108625659
10
-7.4275071796197167
20
24.760624898231249
10
-13.574059225138972
20
-18.807940581386333
10
-16.544643235112897
20
-18.388857487373649
10
-14.588922129720423
20
-4.5261321074953464
10
-17.559506139694328
20
-4.1070490134826789
42
0.41421356237309492
10
-20.949173243680931
20
-6.6585499294439376
10
-24.022449266440553
20
-28.442832669252684
42
0.41421356237309515
10
-21.470948350479322
20
-31.832499773239292
10
-15.529780330531455
20
-32.670665961264653
10
-20
20
-64.356895400986502
10
-8.7411693211855113
20
-64.356895400986502
42
0.31496154259440479
10
2.9997333355044731
20
-56.146557952531793
10
16.334674811291666
20
-19.648523918718354
42
-0.31496154259440556
10
22.205126139636665
20
-15.543355194490989
10
97.794873860363339
20
-15.543355194490967
42
-0.31496154259440456
10
103.66532518870832
20
-19.648523918718311
10
117.00026666449553
20
-56.146557952531779
42
0.31496154259440506
10
128.74116932118551
20
-64.356895400986502
10
140
20
-64.356895400986502
10
135.52978033053145
20
-32.670665961264653
10
141.47094835047932
20
-31.832499773239284
42
0.41421356237309392
10
144.02244926644056
20
-28.442832669252695
10
140.94917324368095
20
-6.6585499294439288
42
0.41421356237309342
10
137.55950613969435
20
-4.1070490134826869
10
134.58892212972043
20
-4.5261321074953456
10
136.54464323511289
20
-18.388857487373649
10
133.57405922513897
20
-18.807940581386333
10
127.42750717961971
20
24.760624898231249
10
133.36867519956758
20
25.598791086256618
42
0.41421356237309459
10
135.92017611552882
20
28.9884581902432
10
132.84690009276918
20
50.772740930051974
42
0.4142135623730932
10
129.45723298878261
20
53.324241846013216
10
126.48664897880866
20
52.90515875200056
10
128.44237008420117
20
39.042433372122218
10
125.47178607422723
20
38.623350278109569
10
119.325234028708
20
82.191915757727116
10
125.26640204865583
20
83.030081945752485
42
0.41421356237309337
10
127.81790296461708
20
86.419749049739082
10
124.74462694185745
20
108.20403178954784
42
0.4142135623730982
10
121.35495983787084
20
110.75553270550913
10
118.38437582789693
20
110.33644961149645
10
120.3400969332894
20
96.473724231618121
10
117.36951292331551
20
96.054641137605472
0
LWPOLYLINE
5
106
100
AcDbEntity
8
0
100
AcDbPolyline
90
10
70
1
43
0.0
10
164.34396037999537
20
-16.233911660232465
42
0.37373468883298944
10
195.03999514972594
20
-42.903386355434776
10
220.88523128983167
20
-42.903386355434741
42
0.37373468883298933
10
251.58126605956224
20
-16.233911660232394
10
268.24326825127741
20
101.87125171188512
42
0.75215786513824778
10
266.4896650873369
20
102.65686207060334
42
-0.22062192861801766
10
257.32876315994588
20
98.407853999171209
10
158.59646327961173
20
98.407853999171223
42
-0.22062192861801752
10
149.43556135222076
20
102.65686207060335
42
0.75215786513825322
10
147.68195818828019
20
101.87125171188514
0
LWPOLYLINE
5
107
100
AcDbEntity
8
0
100
AcDbPolyline
90
4
70
1
43
0.0
10
262.9626132197788
20
115.08986050288374
10
259.9626132197788
20
115.08986050288372
10
259.9626132197788
20
124.12423904077386
10
262.9626132197788
20
124.12423904077386
0
LWPOLYLINE
5
108
100
AcDbEntity
8
0
100
AcDbPolyline
90
4
70
1
43
0.0
10
155.9626132197788
20
115.08986050288372
10
152.9626132197788
20
115.08986050288374
10
152.9626132197788
20
124.12423904077386
10
155.9626132197788
20
124.12423904077386
0
LWPOLYLINE
5
109
100
AcDbEntity
8
0
100
AcDbPolyline
90
62
70
1
43
0.0
10
220.88523128983169
20
-51.903386355434726
42
0.37373468883298905
10
260.49301808948405
20
-17.491160942270447
10
265.33212614309429
20
16.809857667074759
10
268.30271015306823
20
16.39077457306211
10
266.34698904767572
20
2.5280491931837901
10
269.31757305764967
20
2.1089660991711057
42
0.41421356237309509
10
272.70724016163626
20
4.6604670151323706
10
275.78051618439588
20
26.444749754941128
42
0.41421356237308804
10
273.22901526843464
20
29.834416858927739
10
267.2878472484868
20
30.672583046953115
10
273.43439929400603
20
74.241148526570669
10
276.40498330397998
20
73.82206543255802
10
274.44926219858746
20
59.959340052679678
10
277.41984620856141
20
59.54025695866703
42
0.41421356237309531
10
280.80951331254801
20
62.091757874628257
10
283.88278933530762
20
83.876040614437031
42
0.41421356237308626
10
281.33128841934638
20
87.265707718423641
10
275.39012039939854
20
88.103873906448982
10
281.53667244491777
20
131.67243938606657
10
284.50725645489172
20
131.25335629205387
10
282.5515353494992
20
117.39063091217558
10
285.52211935947309
20
116.97154781816292
42
0.4142135623731022
10
288.91178646345975
20
119.52304873412417
10
291.98506248621936
20
141.30733147393295
42
0.41421356237309015
10
289.43356157025812
20
144.69699857791952
10
283.49239355031023
20
145.5351647659449
10
287.9626132197788
20
177.22139420566674
10
276.70378254096431
20
177.22139420566674
42
0.31496154259440856
10
264.96287988427429
20
169.011056757212
10
251.62793840848713
20
132.51302272339854
42
-0.31496154259440456
10
245.75748708014214
20
128.40785399917121
10
170.16773935941546
20
128.40785399917121
42
-0.31496154259440612
10
164.29728803107048
20
132.51302272339859
10
150.96234655528326
20
169.011056757212
42
0.31496154259440412
10
139.22144389859329
20
177.22139420566674
10
127.9626132197788
20
177.22139420566674
10
132.43283288924735
20
145.5351647659449
10
126.49166486929948
20
144.69699857791952
42
0.41421356237308965
10
123.94016395333824
20
141.30733147393292
10
127.01343997609786
20
119.52304873412416
42
0.41421356237308821
10
130.40310708008445
20
116.97154781816293
10
133.37369109005837
20
117.39063091217558
10
131.41796998466592
20
131.25335629205387
10
134.38855399463984
20
131.67243938606657
10
140.53510604015909
20
88.103873906448982
10
134.59393802021123
20
87.265707718423613
42
0.41421356237308743
10
132.04243710424996
20
83.876040614437031
10
135.11571312700963
20
62.091757874628271
42
0.41421356237309681
10
138.5053802309962
20
59.540256958667044
10
141.47596424097014
20
59.959340052679678
10
139.52024313557763
20
73.82206543255802
10
142.49082714555158
20
74.241148526570669
10
148.63737919107081
20
30.672583046953115
10
142.69621117112297
20
29.834416858927746
42
0.41421356237309592
10
140.1447102551617
20
26.444749754941164
10
143.21798627792134
20
4.6604670151324257
42
0.41421356237309975
10
146.60765338190797
20
2.1089660991711536
10
149.57823739188188
20
2.528049193183826
10
147.6225162864894
20
16.39077457306211
10
150.59310029646329
20
16.809857667074759
10
155.43220835007361
20
-17.491160942270518
42
0.37373468883298927
10
195.03999514972594
20
-51.903386355434797
0
LWPOLYLINE
5
110
100
AcDbEntity
8
0
100
AcDbPolyline
90
20
70
1
43
0.0
10
-51.404521018517372
20
66.01182414158626
10
-51.404521018517364
20
86.211735880127492
10
-135.40452101851739
20
86.21173588012752
10
-135.40452101851736
20
66.01182414158626
10
-138.40452101851736
20
66.01182414158626
10
-138.40452101851739
20
86.21173588012752
10
-149.40452101851736
20
86.21173588012752
10
-149.40452101851741
20
-54.674710600347289
10
-138.40452101851741
20
-54.674710600347282
10
-138.40452101851741
20
-34.474798861806057
10
-135.40452101851741
20
-34.474798861806057
10
-135.40452101851741
20
-54.674710600347282
10
-51.404521018517393
20
-54.674710600347282
10
-51.404521018517393
20
-34.474798861806057
10
-48.404521018517421
20
-34.47479886180605
10
-48.404521018517428
20
-54.674710600347282
10
-37.404521018517414
20
-54.674710600347282
10
-37.404521018517379
20
86.211735880127492
10
-48.404521018517322
20
86.211735880127492
10
-48.404521018517329
20
66.01182414158626
0
CIRCLE
5
111
100
AcDbEntity
8
0
100
AcDbCircle
10
-93.404521018517414
20
15.768512639890101
30
0
40
22.5
210
0
220
-0
230
1
0
LWPOLYLINE
5
112
100
AcDbEntity
8
0
100
AcDbPolyline
90
16
70
1
43
0.0
10
-167.88528137390364
20
-32.85001616981485
10
-170.88528137390364
20
-32.850016169814815
10
-170.88528137390369
20
-49.934343103215461
10
-157.88528137390367
20
-48.09332767151097
10
-157.88528137390364
20
-28.093327671511005
10
-167.88528137390364
20
-28.093327671511005
10
-167.88528137390364
20
72.393295331881319
10
-157.88528137390364
20
72.393295331881333
10
-157.88528137390364
20
92.393295331881333
10
-170.88528137390364
20
94.234310763585796
10
-170.88528137390367
20
77.149983830185136
10
-167.88528137390364
20
77.149983830185164
10
-167.88528137390364
20
74.149983830185164
10
-170.88528137390367
20
74.149983830185164
10
-170.88528137390364
20
-29.850016169814843
10
-167.88528137390364
20
-29.850016169814843
0
LWPOLYLINE
5
113
100
AcDbEntity
8
0
100
AcDbPolyline
90
16
70
1
43
0.0
10
-181.96973682169218
20
77.262855831173297
10
-178.96973682169221
20
77.262855831173283
10
-178.96973682169221
20
94.347182764573915
10
-191.96973682169218
20
92.506167332869467
10
-191.96973682169221
20
72.506167332869452
10
-181.96973682169218
20
72.506167332869452
10
-181.96973682169218
20
-27.980455670522861
10
-191.96973682169215
20
-27.980455670522851
10
-191.96973682169215
20
-47.980455670522851
10
-178.96973682169218
20
-49.821471102227306
10
-178.96973682169218
20
-32.73714416882666
10
-181.96973682169218
20
-32.737144168826696
10
-181.96973682169218
20
-29.737144168826688
10
-178.96973682169218
20
-29.737144168826688
10
-178.96973682169221
20
74.262855831173297
10
-181.96973682169221
20
74.262855831173297
0
LINE
5
114
100
AcDbEntity
8
0
100
AcDbLine
10
158.24731294106175
20
-210.16369554181114
30
0
11
158.24731294106175
21
-213.16369554181114
31
0
0
LINE
5
115
100
AcDbEntity
8
0
100
AcDbLine
10
158.24731294106175
20
-213.16369554181114
30
0
11
124.74731294106176
21
-213.16369554181119
31
0
0
LINE
5
116
100
AcDbEntity
8
0
100
AcDbLine
10
124.74731294106176
20
-213.16369554181119
30
0
11
124.74731294106176
21
-210.16369554181119
31
0
0
LINE
5
117
100
AcDbEntity
8
0
100
AcDbLine
10
124.74731294106176
20
-210.16369554181119
30
0
11
79.74731294106175
21
-210.16369554181119
31
0
0
LINE
5
118
100
AcDbEntity
8
0
100
AcDbLine
10
79.74731294106175
20
-210.16369554181119
30
0
11
79.74731294106175
21
-213.16369554181119
31
0
0
LINE
5
119
100
AcDbEntity
8
0
100
AcDbLine
10
79.74731294106175
20
-213.16369554181119
30
0
11
46.247312941061736
21
-213.16369554181119
31
2.4632199568209675e-46
0
LINE
5
120
100
AcDbEntity
8
0
100
AcDbLine
10
46.247312941061736
20
-213.16369554181119
30
2.4632199568209675e-46
11
46.247312941061736
21
-210.16369554181119
31
0
0
LINE
5
121
100
AcDbEntity
8
0
100
AcDbLine
10
46.247312941061736
20
-210.16369554181119
30
0
11
37.883157572694664
21
-210.16369554181119
31
0
0
LINE
5
122
100
AcDbEntity
8
0
100
AcDbLine
10
37.883157572694664
20
-210.16369554181119
30
0
11
34.894573478419446
21
-209.90222831356817
31
0
0
LINE
5
123
100
AcDbEntity
8
0
100
AcDbLine
10
34.894573478419446
20
-209.90222831356817
30
0
11
34.107175506686119
21
-218.90222831356817
31
0
0
LINE
5
124
100
AcDbEntity
8
0
100
AcDbLine
10
34.107175506686104
20
-218.90222831356812
30
0
11
37.095759600961344
21
-219.16369554181108
31
0
0
LINE
5
125
100
AcDbEntity
8
0
100
AcDbLine
10
37.095759600961344
20
-219.16369554181108
30
0
11
167.3988662811621
21
-219.16369554181114
31
0
0
LINE
5
126
100
AcDbEntity
8
0
100
AcDbLine
10
170.38745037543734
20
-218.90222831356817
30
0
11
169.60005240370404
21
-209.90222831356823
31
0
0
LINE
5
127
100
AcDbEntity
8
0
100
AcDbLine
10
169.60005240370404
20
-209.90222831356823
30
0
11
166.6114683094288
21
-210.16369554181119
31
0
0
LINE
5
128
100
AcDbEntity
8
0
100
AcDbLine
10
166.6114683094288
20
-210.16369554181119
30
0
11
158.24731294106175
21
-210.16369554181114
31
0
0
LINE
5
129
100
AcDbEntity
8
0
100
AcDbLine
10
-112.50940382025408
20
-213.40160466261867
30
0
11
-112.50940382025408
21
-210.40160466261869
31
0
0
LINE
5
130
100
AcDbEntity
8
0
100
AcDbLine
10
-112.50940382025408
20
-210.40160466261869
30
0
11
-120.87355918862116
21
-210.40160466261875
31
0
0
LINE
5
131
100
AcDbEntity
8
0
100
AcDbLine
10
-120.87355918862116
20
-210.40160466261875
30
0
11
-123.8621432828964
21
-210.14013743437573
31
0
0
LINE
5
132
100
AcDbEntity
8
0
100
AcDbLine
10
-123.8621432828964
20
-210.14013743437573
30
0
11
-124.6495412546297
21
-219.14013743437579
31
0
0
LINE
5
133
100
AcDbEntity
8
0
100
AcDbLine
10
-124.6495412546297
20
-219.14013743437573
30
0
11
-121.66095716035446
21
-219.40160466261869
31
0
0
LINE
5
134
100
AcDbEntity
8
0
100
AcDbLine
10
-121.66095716035446
20
-219.40160466261869
30
0
11
8.642149519846285
21
-219.40160466261864
31
0
0
LINE
5
135
100
AcDbEntity
8
0
100
AcDbLine
10
11.630733614121516
20
-219.14013743437567
30
0
11
10.843335642388192
21
-210.14013743437567
31
0
0
LINE
5
136
100
AcDbEntity
8
0
100
AcDbLine
10
10.843335642388192
20
-210.14013743437567
30
0
11
7.8547515481129704
21
-210.40160466261867
31
0
0
LINE
5
137
100
AcDbEntity
8
0
100
AcDbLine
10
7.8547515481129704
20
-210.40160466261867
30
0
11
-0.5094038202541018
21
-210.40160466261867
31
0
0
LINE
5
138
100
AcDbEntity
8
0
100
AcDbLine
10
-0.5094038202541018
20
-210.40160466261867
30
0
11
-0.5094038202541018
21
-213.40160466261867
31
0
0
LINE
5
139
100
AcDbEntity
8
0
100
AcDbLine
10
-0.5094038202541018
20
-213.40160466261867
30
0
11
-34.009403820254107
21
-213.40160466261867
31
-2.4632199568209675e-46
0
LINE
5
140
100
AcDbEntity
8
0
100
AcDbLine
10
-34.009403820254107
20
-213.40160466261867
30
-2.4632199568209675e-46
11
-34.009403820254107
21
-210.40160466261869
31
0
0
LINE
5
141
100
AcDbEntity
8
0
100
AcDbLine
10
-34.009403820254107
20
-210.40160466261869
30
0
11
-79.009403820254107
21
-210.40160466261869
31
0
0
LINE
5
142
100
AcDbEntity
8
0
100
AcDbLine
10
-79.009403820254107
20
-210.40160466261869
30
0
11
-79.009403820254107
21
-213.40160466261869
31
0
0
LINE
5
143
100
AcDbEntity
8
0
100
AcDbLine
10
-79.009403820254107
20
-213.40160466261869
30
0
11
-112.50940382025408
21
-213.40160466261867
31
0
0
LINE
5
144
100
AcDbEntity
8
0
100
AcDbLine
10
-52.922618070052891
20
-200.3016384445871
30
0
11
-237.41334546516453
21
-216.28302576443235
31
-1.1412193637118069e-16
0
LINE
5
145
100
AcDbEntity
8
0
100
AcDbLine
10
-237.41334546516521
20
-59.716974235569495
30
0
11
-52.922618070052891
21
-75.698361555413186
31
-1.1412193637144249e-16
0
ARC
5
146
100
AcDbEntity
8
0
100
AcDbCircle
10
-230.34485122480385
20
-205.50657035768722
30
0
40
12.499999999999991
210
-2.0193656974108076e-32
220
1.4139750837291426e-32
230
1
100
AcDbArc
50
110.00000000000036
51
180
0
LINE
5
147
100
AcDbEntity
8
0
100
AcDbLine
10
-234.62010301637477
20
-193.76041259786342
30
-2.5242071217635045e-31
11
-208.89194525398651
21
-184.39612898984902
31
-4.4924346598546511e-16
0
ARC
5
148
100
AcDbEntity
8
0
100
AcDbCircle
10
-230.34485122480442
20
-70.493429642314311
30
0
40
12.5
210
-5.0484142435269898e-32
220
-3.5349377093228983e-32
230
1
100
AcDbArc
50
180
51
250.00000000000037
0
LINE
5
149
100
AcDbEntity
8
0
100
AcDbLine
10
-208.8919452539869
20
-91.603871010152389
30
0
11
-234.6201030163752
21
-82.239587402138199
31
-6.3105178044087495e-31
0
ARC
5
150
100
AcDbEntity
8
0
100
AcDbCircle
10
280.3448512248043
20
-205.50657035768612
30
0
40
12.5
210
-4.0387313948215961e-32
220
-2.8279501674583087e-32
230
1
100
AcDbArc
50
0
51
70.000000000000057
0
LINE
5
151
100
AcDbEntity
8
0
100
AcDbLine
10
258.89194525398676
20
-184.39612898984797
30
0
11
284.62010301637514
21
-193.76041259786228
31
5.0484142435270117e-31
0
LINE
5
152
100
AcDbEntity
8
0
100
AcDbLine
10
292.8448512248043
20
-211.30168028560718
30
0
11
292.8448512248043
21
-205.50657035768609
31
5.0484142435270055e-31
0
ARC
5
153
100
AcDbEntity
8
0
100
AcDbCircle
10
287.84485122480436
20
-211.30168028560718
30
0
40
5.0000000000000187
210
6.6649514081341549e-32
220
-7.2672578352354138e-32
230
1
100
AcDbArc
50
-94.950850354889042
51
0
0
LINE
5
154
100
AcDbEntity
8
0
100
AcDbLine
10
287.41334546516504
20
-216.28302576443099
30
-3.3324757040670697e-31
11
102.92261807005292
21
-200.30163844458681
31
1.141219363713641e-16
0
LINE
5
155
100
AcDbEntity
8
0
100
AcDbLine
10
102.92261807005292
20
-200.30163844458681
30
1.141219363713641e-16
11
102.92261807005292
21
-167.99999999999997
31
-3.8329979933141058e-16
0
LINE
5
156
100
AcDbEntity
8
0
100
AcDbLine
10
102.92261807005292
20
-167.99999999999997
30
-3.8329979933141058e-16
11
101.92261807005292
21
-167.99999999999997
31
0
0
LINE
5
157
100
AcDbEntity
8
0
100
AcDbLine
10
101.92261807005292
20
-167.99999999999997
30
0
11
101.92261807005295
21
-200.21501410554552
31
-1.8623756333565228e-16
0
LINE
5
158
100
AcDbEntity
8
0
100
AcDbLine
10
101.92261807005295
20
-200.21501410554552
30
-1.8623756333565228e-16
11
99.922618070052891
21
-200.04176542746302
31
-2.885170070896917e-17
0
LINE
5
159
100
AcDbEntity
8
0
100
AcDbLine
10
99.922618070052891
20
-200.04176542746302
30
-2.885170070896917e-17
11
99.92261807005292
21
-192.99999999999997
31
-6.2466492111667687e-17
0
LINE
5
160
100
AcDbEntity
8
0
100
AcDbLine
10
99.92261807005292
20
-192.99999999999997
30
-6.2466492111667687e-17
11
98.922618070052906
21
-192.99999999999997
31
0
0
LINE
5
161
100
AcDbEntity
8
0
100
AcDbLine
10
98.922618070052906
20
-192.99999999999997
30
0
11
98.922618070052906
21
-199.95514108842173
31
4.8040641757189018e-17
0
LINE
5
162
100
AcDbEntity
8
0
100
AcDbLine
10
98.922618070052906
20
-199.95514108842173
30
4.8040641757189018e-17
11
96.937816850459342
21
-199.78320899464617
31
-2.8632445377251613e-17
0
LINE
5
163
100
AcDbEntity
8
0
100
AcDbLine
10
96.937816850459129
20
-76.216791005353571
30
0
11
98.922618070052906
21
-76.044858911577961
31
-2.8632445377254572e-17
0
LINE
5
164
100
AcDbEntity
8
0
100
AcDbLine
10
98.922618070052906
20
-76.044858911577961
30
-2.8632445377254572e-17
11
98.922618070052948
21
-82.999999999999972
31
4.8040641757230433e-17
0
LINE
5
165
100
AcDbEntity
8
0
100
AcDbLine
10
98.922618070052948
20
-82.999999999999972
30
4.8040641757230433e-17
11
99.922618070052891
21
-82.999999999999972
31
0
0
LINE
5
166
100
AcDbEntity
8
0
100
AcDbLine
10
99.922618070052891
20
-82.999999999999972
30
0
11
99.92261807005292
21
-75.958234572536711
31
-6.2466492111715018e-17
0
LINE
5
167
100
AcDbEntity
8
0
100
AcDbLine
10
99.92261807005292
20
-75.958234572536711
30
-6.2466492111715018e-17
11
101.92261807005292
21
-75.784985894454152
31
-2.8851700708966212e-17
0
LINE
5
168
100
AcDbEntity
8
0
100
AcDbLine
10
101.92261807005292
20
-75.784985894454152
30
-2.8851700708966212e-17
11
101.92261807005292
21
-107.99999999999999
31
-1.8623756333560791e-16
0
LINE
5
169
100
AcDbEntity
8
0
100
AcDbLine
10
101.92261807005292
20
-107.99999999999999
30
-1.8623756333560791e-16
11
102.92261807005292
21
-107.99999999999999
31
0
0
LINE
5
170
100
AcDbEntity
8
0
100
AcDbLine
10
102.92261807005292
20
-107.99999999999999
30
0
11
102.92261807005286
21
-75.698361555412887
31
-3.8329979933145495e-16
0
LINE
5
171
100
AcDbEntity
8
0
100
AcDbLine
10
102.92261807005286
20
-75.698361555412887
30
-3.8329979933145495e-16
11
287.41334546516475
21
-59.716974235568038
31
1.1412193637125168e-16
0
ARC
5
172
100
AcDbEntity
8
0
100
AcDbCircle
10
287.84485122480402
20
-64.698319714391857
30
0
40
5
210
8.3311892601676676e-32
220
9.0840722940443182e-32
230
1
100
AcDbArc
50
0
51
94.95085035488836
0
LINE
5
173
100
AcDbEntity
8
0
100
AcDbLine
10
292.84485122480402
20
-70.49342964231316
30
0
11
292.84485122480402
21
-64.698319714391857
31
-4.1655946300838342e-31
0
ARC
5
174
100
AcDbEntity
8
0
100
AcDbCircle
10
280.34485122480407
20
-70.493429642313188
30
0
40
12.500000000000009
210
2.0193656974108027e-32
220
-1.4139750837291478e-32
230
1
100
AcDbArc
50
-70.000000000000128
51
0
0
LINE
5
175
100
AcDbEntity
8
0
100
AcDbLine
10
284.62010301637491
20
-82.239587402137047
30
-2.5242071217635001e-31
11
258.89194525398659
21
-91.603871010151437
31
4.4924346598546511e-16
0
ARC
5
176
100
AcDbEntity
8
0
100
AcDbCircle
10
261.02957114977204
20
-97.47694989006331
30
0
40
6.2499999999999627
210
2.4584050339915759e-17
220
-6.7544123187652485e-17
230
1
100
AcDbArc
50
110.00000000000033
51
180
0
LINE
5
177
100
AcDbEntity
8
0
100
AcDbLine
10
254.77957114977204
20
-97.476949890063324
30
-1.8931553413226244e-31
11
254.77957114977215
21
-178.52305010993607
31
-3.8090082978735405e-16
0
ARC
5
178
100
AcDbEntity
8
0
100
AcDbCircle
10
261.02957114977221
20
-178.52305010993604
30
0
40
6.2500000000000355
210
-6.0944132765976305e-17
220
-2.7674450168787844e-31
230
1
100
AcDbArc
50
180
51
249.9999999999998
0
LWPOLYLINE
5
179
100
AcDbEntity
8
0
100
AcDbPolyline
90
4
70
1
43
0.0
10
99.92261807005292
20
-182.99999999999997
10
99.92261807005292
20
-143
10
98.922618070052906
20
-142.99999999999997
10
98.922618070052906
20
-182.99999999999997
0
LWPOLYLINE
5
180
100
AcDbEntity
8
0
100
AcDbPolyline
90
4
70
1
43
0.0
10
105.92261807005293
20
-133
10
105.92261807005293
20
-92.999999999999972
10
104.92261807005292
20
-92.999999999999972
10
104.92261807005292
20
-133
0
LWPOLYLINE
5
181
100
AcDbEntity
8
0
100
AcDbPolyline
90
4
70
1
43
0.0
10
102.92261807005292
20
-158
10
102.92261807005292
20
-117.99999999999999
10
101.92261807005292
20
-117.99999999999997
10
101.92261807005292
20
-158
0
LWPOLYLINE
5
182
100
AcDbEntity
8
0
100
AcDbPolyline
90
4
70
1
43
0.0
10
105.92261807005289
20
-182.99999999999997
10
105.92261807005289
20
-143
10
104.92261807005289
20
-142.99999999999997
10
104.92261807005292
20
-182.99999999999997
0
LWPOLYLINE
5
183
100
AcDbEntity
8
0
100
AcDbPolyline
90
4
70
1
43
0.0
10
108.92261807005295
20
-158
10
108.92261807005295
20
-117.99999999999999
10
107.92261807005289
20
-117.99999999999997
10
107.92261807005289
20
-158
0
LWPOLYLINE
5
184
100
AcDbEntity
8
0
100
AcDbPolyline
90
4
70
1
43
0.0
10
99.92261807005292
20
-133
10
99.92261807005292
20
-92.999999999999986
10
98.922618070052906
20
-92.999999999999972
10
98.922618070052948
20
-133
0
ARC
5
185
100
AcDbEntity
8
0
100
AcDbCircle
10
-211.02957114977198
20
-178.52305010993706
30
0
40
6.2500000000000284
210
2.4584050339915278e-17
220
-6.7544123187651832e-17
230
1
100
AcDbArc
50
-69.999999999999716
51
0
0
LINE
5
186
100
AcDbEntity
8
0
100
AcDbLine
10
-204.77957114977198
20
-178.52305010993703
30
-2.5242071217634966e-31
11
-204.77957114977229
21
-97.476949890064304
31
-1.7421068252522225e-16
0
ARC
5
187
100
AcDbEntity
8
0
100
AcDbCircle
10
-211.02957114977227
20
-97.476949890064333
30
0
40
6.2499999999999645
210
2.7873709204035718e-17
220
5.9465436887896895e-32
230
1
100
AcDbArc
50
0
51
70.000000000000625
0
LINE
5
188
100
AcDbEntity
8
0
100
AcDbLine
10
-242.84485122480444
20
-64.698319714393278
30
0
11
-242.84485122480442
21
-70.493429642314368
31
-6.310517804408753e-31
0
ARC
5
189
100
AcDbEntity
8
0
100
AcDbCircle
10
-237.84485122480444
20
-64.698319714393264
30
0
40
4.9999999999999867
210
0
220
-0
230
1
100
AcDbArc
50
85.04914964511191
51
180
0
LINE
5
190
100
AcDbEntity
8
0
100
AcDbLine
10
-52.922618070052891
20
-75.698361555413186
30
-1.1412193637144249e-16
11
-52.922618070052899
21
-107.99999999999999
31
-1.7181171298117558e-16
0
LINE
5
191
100
AcDbEntity
8
0
100
AcDbLine
10
-52.922618070052899
20
-107.99999999999999
30
-1.7181171298117558e-16
11
-51.922618070052884
21
-107.99999999999999
31
0
0
LINE
5
192
100
AcDbEntity
8
0
100
AcDbLine
10
-51.922618070052884
20
-107.99999999999999
30
0
11
-51.922618070052913
21
-75.784985894454465
31
-3.6887394897692205e-16
0
LINE
5
193
100
AcDbEntity
8
0
100
AcDbLine
10
-51.922618070052913
20
-75.784985894454465
30
-3.6887394897692205e-16
11
-49.922618070052842
21
-75.958234572536995
31
2.8851700708964733e-17
0
LINE
5
194
100
AcDbEntity
8
0
100
AcDbLine
10
-49.922618070052842
20
-75.958234572536995
30
2.8851700708964733e-17
11
-49.922618070052849
21
-82.999999999999986
31
6.2466492111667687e-17
0
LINE
5
195
100
AcDbEntity
8
0
100
AcDbLine
10
-49.922618070052849
20
-82.999999999999986
30
6.2466492111667687e-17
11
-48.922618070052842
21
-83
31
0
0
LINE
5
196
100
AcDbEntity
8
0
100
AcDbLine
10
-48.922618070052842
20
-83
30
0
11
-48.922618070052835
21
-76.04485891157826
31
-4.8040641757187539e-17
0
LINE
5
197
100
AcDbEntity
8
0
100
AcDbLine
10
-48.922618070052835
20
-76.04485891157826
30
-4.8040641757187539e-17
11
-46.937816850459377
21
-76.216791005353826
31
2.8632445377248655e-17
0
LINE
5
198
100
AcDbEntity
8
0
100
AcDbLine
10
-46.937816850458809
20
-199.78320899464634
30
0
11
-48.92261807005287
21
-199.95514108842201
31
2.8632445377263446e-17
0
LINE
5
199
100
AcDbEntity
8
0
100
AcDbLine
10
-48.92261807005287
20
-199.95514108842201
30
2.8632445377263446e-17
11
-48.922618070052891
21
-192.99999999999997
31
-4.804064175723635e-17
0
LINE
5
200
100
AcDbEntity
8
0
100
AcDbLine
10
-48.922618070052891
20
-192.99999999999997
30
-4.804064175723635e-17
11
-49.922618070052856
21
-193
31
0
0
LINE
5
201
100
AcDbEntity
8
0
100
AcDbLine
10
-49.922618070052856
20
-193
30
0
11
-49.922618070052863
21
-200.04176542746325
31
6.2466492111715018e-17
0
LINE
5
202
100
AcDbEntity
8
0
100
AcDbLine
10
-49.922618070052863
20
-200.04176542746325
30
6.2466492111715018e-17
11
-51.922618070052877
21
-200.21501410554581
31
2.8851700708963253e-17
0
LINE
5
203
100
AcDbEntity
8
0
100
AcDbLine
10
-51.922618070052877
20
-200.21501410554581
30
2.8851700708963253e-17
11
-51.922618070052884
21
-167.99999999999997
31
-3.6887394897697924e-16
0
LINE
5
204
100
AcDbEntity
8
0
100
AcDbLine
10
-51.922618070052884
20
-167.99999999999997
30
-3.6887394897697924e-16
11
-52.922618070052863
21
-167.99999999999997
31
0
0
LINE
5
205
100
AcDbEntity
8
0
100
AcDbLine
10
-52.922618070052863
20
-167.99999999999997
30
0
11
-52.922618070052891
21
-200.3016384445871
31
0
0
ARC
5
206
100
AcDbEntity
8
0
100
AcDbCircle
10
-237.84485122480379
20
-211.3016802856086
30
0
40
5
210
0
220
0
230
1
100
AcDbArc
50
180
51
274.95085035488842
0
LINE
5
207
100
AcDbEntity
8
0
100
AcDbLine
10
-242.84485122480385
20
-205.50657035768725
30
-2.5242071217635041e-31
11
-242.84485122480379
21
-211.30168028560863
31
0
0
LWPOLYLINE
5
208
100
AcDbEntity
8
0
100
AcDbPolyline
90
4
70
1
43
0.0
10
-49.922618070052891
20
-143
10
-49.922618070052906
20
-182.99999999999997
10
-48.922618070052877
20
-183
10
-48.922618070052877
20
-143
0
LWPOLYLINE
5
209
100
AcDbEntity
8
0
100
AcDbPolyline
90
4
70
1
43
0.0
10
-58.92261807005287
20
-117.99999999999999
10
-58.922618070052877
20
-158
10
-57.922618070052863
20
-158
10
-57.92261807005282
20
-117.99999999999999
0
LWPOLYLINE
5
210
100
AcDbEntity
8
0
100
AcDbPolyline
90
4
70
1
43
0.0
10
-52.922618070052899
20
-117.99999999999999
10
-52.922618070052906
20
-158
10
-51.922618070052884
20
-158
10
-51.922618070052884
20
-117.99999999999999
0
LWPOLYLINE
5
211
100
AcDbEntity
8
0
100
AcDbPolyline
90
4
70
1
43
0.0
10
-55.922618070052899
20
-143
10
-55.922618070052906
20
-182.99999999999997
10
-54.922618070052891
20
-183
10
-54.922618070052891
20
-143
0
LWPOLYLINE
5
212
100
AcDbEntity
8
0
100
AcDbPolyline
90
4
70
1
43
0.0
10
-49.922618070052856
20
-92.999999999999986
10
-49.922618070052856
20
-133
10
-48.922618070052877
20
-133
10
-48.922618070052842
20
-93
0
LWPOLYLINE
5
213
100
AcDbEntity
8
0
100
AcDbPolyline
90
4
70
1
43
0.0
10
-55.922618070052863
20
-92.999999999999986
10
-55.922618070052863
20
-133
10
-54.922618070052891
20
-133
10
-54.922618070052891
20
-92.999999999999986
0
LWPOLYLINE
5
214
100
AcDbEntity
8
0
100
AcDbPolyline
90
4
70
1
43
0.0
10
65.922618070052877
20
-118
10
65.922618070052863
20
-158
10
66.922618070052863
20
-158
10
66.922618070052849
20
-118.00000000000003
0
LWPOLYLINE
5
215
100
AcDbEntity
8
0
100
AcDbPolyline
90
4
70
1
43
0.0
10
68.922618070052877
20
-143
10
68.922618070052891
20
-183
10
69.922618070052863
20
-183
10
69.922618070052863
20
-143
0
LINE
5
216
100
AcDbEntity
8
0
100
AcDbLine
10
57.922618070052884
20
-83
30
0
11
57.922618070052849
21
-79.027982451298868
31
-1.0636228820489849e-16
0
LINE
5
217
100
AcDbEntity
8
0
100
AcDbLine
10
56.922618070052884
20
-79.069748085901921
30
0
11
56.922618070052891
21
-83
31
9.940691282873997e-17
0
LINE
5
218
100
AcDbEntity
8
0
100
AcDbLine
10
56.922618070052891
20
-83
30
9.940691282873997e-17
11
57.922618070052884
21
-83
31
0
0
SPLINE
5
219
100
AcDbEntity
8
0
100
AcDbSpline
70
0
71
3
72
8
73
4
74
0
42
0.000000001
43
0.0000000001
44
0.0000000001
40
-4.3732027592624592
40
-4.3732027592624592
40
-4.3732027592624592
40
-4.3732027592624592
40
-4.1617936152046031
40
-4.1617936152046031
40
-4.1617936152046031
40
-4.1617936152046031
10
54.922618070052891
20
-79.147283423516285
30
0
10
55.589470891805746
20
-79.122779428794857
30
0
10
56.256069559928832
20
-79.096926119704534
30
0
10
56.922618070052884
20
-79.069748085901907
30
0
0
SPLINE
5
220
100
AcDbEntity
8
0
100
AcDbSpline
70
0
71
3
72
8
73
4
74
0
42
0.000000001
43
0.0000000001
44
0.0000000001
40
-4.0560689949217412
40
-4.0560689949217412
40
-4.0560689949217412
40
-4.0560689949217412
40
-3.8446601827192528
40
-3.8446601827192528
40
-3.8446601827192528
40
-3.8446601827192528
10
57.922618070052884
20
-79.027982451298854
30
0
10
58.589165922323289
20
-78.99948562403705
30
0
10
59.255764748225062
20
-78.969676355410584
30
0
10
59.922618070052877
20
-78.938579175824486
30
0
0
LINE
5
221
100
AcDbEntity
8
0
100
AcDbLine
10
14.077381929947133
20
-107.99999999999999
30
-5.5511151231257827e-16
11
14.077381929947133
21
-79.464146991715211
31
-3.112820570668931e-16
0
LINE
5
222
100
AcDbEntity
8
0
100
AcDbLine
10
13.077381929947133
20
-107.99999999999999
30
0
11
14.077381929947133
21
-107.99999999999999
31
-5.5511151231257827e-16
0
LINE
5
223
100
AcDbEntity
8
0
100
AcDbLine
10
13.077381929947133
20
-79.464146991715211
30
0
11
13.077381929947133
21
-107.99999999999999
31
0
0
LINE
5
224
100
AcDbEntity
8
0
100
AcDbLine
10
14.077381929947133
20
-79.464146991715211
30
-3.112820570668931e-16
11
35.922618070052863
21
-79.464146991715197
31
-2.9582283945787943e-30
0
LINE
5
225
100
AcDbEntity
8
0
100
AcDbLine
10
35.922618070052863
20
-79.464146991715197
30
-2.9582283945787943e-30
11
35.922618070052863
21
-107.99999999999999
31
-2.4382945524568221e-16
0
LINE
5
226
100
AcDbEntity
8
0
100
AcDbLine
10
35.922618070052863
20
-107.99999999999999
30
-2.4382945524568221e-16
11
36.92261807005287
21
-107.99999999999999
31
0
0
LINE
5
227
100
AcDbEntity
8
0
100
AcDbLine
10
36.92261807005287
20
-107.99999999999999
30
0
11
36.922618070052863
21
-79.464146991715197
31
-3.1128205706689606e-16
0
LINE
5
228
100
AcDbEntity
8
0
100
AcDbLine
10
36.922618070052863
20
-79.464146991715197
30
-3.1128205706689606e-16
11
37.922618070052863
21
-79.464146991715197
31
0
0
LINE
5
229
100
AcDbEntity
8
0
100
AcDbLine
10
37.922618070052856
20
-196.53585300828473
30
0
11
36.922618070052863
21
-196.53585300828473
31
0
0
LINE
5
230
100
AcDbEntity
8
0
100
AcDbLine
10
36.922618070052863
20
-196.53585300828473
30
0
11
36.922618070052863
21
-167.99999999999997
31
-3.1128205706689902e-16
0
LINE
5
231
100
AcDbEntity
8
0
100
AcDbLine
10
36.922618070052863
20
-167.99999999999997
30
-3.1128205706689902e-16
11
35.92261807005287
21
-167.99999999999997
31
0
0
LINE
5
232
100
AcDbEntity
8
0
100
AcDbLine
10
35.92261807005287
20
-167.99999999999997
30
0
11
35.922618070052863
21
-196.53585300828479
31
-2.4382945524567925e-16
0
LINE
5
233
100
AcDbEntity
8
0
100
AcDbLine
10
35.922618070052863
20
-196.53585300828479
30
-2.4382945524567925e-16
11
14.077381929947133
21
-196.53585300828473
31
0
0
LINE
5
234
100
AcDbEntity
8
0
100
AcDbLine
10
14.077381929947133
20
-196.53585300828473
30
0
11
14.077381929947133
21
-167.99999999999997
31
-3.112820570668931e-16
0
LINE
5
235
100
AcDbEntity
8
0
100
AcDbLine
10
14.077381929947133
20
-167.99999999999997
30
-3.112820570668931e-16
11
13.077381929947133
21
-167.99999999999997
31
0
0
LINE
5
236
100
AcDbEntity
8
0
100
AcDbLine
10
13.077381929947133
20
-167.99999999999997
30
0
11
13.077381929947133
21
-196.53585300828473
31
-2.4382945524568517e-16
0
LINE
5
237
100
AcDbEntity
8
0
100
AcDbLine
10
13.077381929947133
20
-196.53585300828473
30
-2.4382945524568517e-16
11
12.077381929947112
21
-196.53585300828473
31
0
0
LINE
5
238
100
AcDbEntity
8
0
100
AcDbLine
10
12.077381929947135
20
-79.464146991715211
30
0
11
13.077381929947133
21
-79.464146991715211
31
0
0
LWPOLYLINE
5
239
100
AcDbEntity
8
0
100
AcDbPolyline
90
4
70
1
43
0.0
10
36.922618070052863
20
-158
10
36.922618070052863
20
-117.99999999999999
10
35.92261807005287
20
-117.99999999999999
10
35.922618070052863
20
-158
0
LWPOLYLINE
5
240
100
AcDbEntity
8
0
100
AcDbPolyline
90
4
70
1
43
0.0
10
13.077381929947133
20
-117.99999999999999
10
13.077381929947133
20
-158
10
14.077381929947135
20
-158
10
14.077381929947133
20
-117.99999999999999
0
LINE
5
241
100
AcDbEntity
8
0
100
AcDbLine
10
42.922618070052863
20
-107.99999999999999
30
0
11
42.922618070052863
21
-79.436377514795936
31
-3.1590660396552948e-16
0
LINE
5
242
100
AcDbEntity
8
0
100
AcDbLine
10
41.922618070052863
20
-79.446366655565868
30
0
11
41.922618070052863
21
-108
31
3.1424307785368302e-16
0
LINE
5
243
100
AcDbEntity
8
0
100
AcDbLine
10
41.922618070052863
20
-108
30
3.1424307785368302e-16
11
42.922618070052863
21
-107.99999999999999
31
0
0
SPLINE
5
244
100
AcDbEntity
8
0
100
AcDbSpline
70
0
71
3
72
8
73
4
74
0
42
0.000000001
43
0.0000000001
44
0.0000000001
40
-5.9580499605508095
40
-5.9580499605508095
40
-5.9580499605508095
40
-5.9580499605508095
40
-5.7466877049366563
40
-5.7466877049366563
40
-5.7466877049366563
40
-5.7466877049366563
10
39.922618060720126
20
-79.459699283141617
30
0
10
40.589675877460323
20
-79.456732988044863
30
0
10
41.256273863752277
20
-79.45228590476404
30
0
10
41.922618061622359
20
-79.446366655490991
30
0
0
SPLINE
5
245
100
AcDbEntity
8
0
100
AcDbSpline
70
0
71
3
72
8
73
4
74
0
42
0.000000001
43
0.0000000001
44
0.0000000001
40
-5.6409379412243936
40
-5.6409379412243936
40
-5.6409379412243936
40
-5.6409379412243936
40
-5.4293816370083263
40
-5.4293816370083263
40
-5.4293816370083263
40
-5.4293816370083263
10
42.922618059545428
20
-79.436377514679393
30
0
10
43.589370303807947
20
-79.428980479902265
30
0
10
44.255969648685294
20
-79.420112838555781
30
0
10
44.922618070052863
20
-79.409783061020107
30
0
0
LINE
5
246
100
AcDbEntity
8
0
100
AcDbLine
10
56.922618070052863
20
-193
30
0
11
56.92261807005287
21
-196.9302519140966
31
9.9406912828491478e-17
0
LINE
5
247
100
AcDbEntity
8
0
100
AcDbLine
10
57.922618070052856
20
-196.97201754870656
30
0
11
57.922618070052856
21
-193
31
-1.063622882057978e-16
0
LINE
5
248
100
AcDbEntity
8
0
100
AcDbLine
10
57.922618070052856
20
-193
30
-1.063622882057978e-16
11
56.922618070052863
21
-193
31
0
0
SPLINE
5
249
100
AcDbEntity
8
0
100
AcDbSpline
70
0
71
3
72
8
73
4
74
0
42
0.000000001
43
0.0000000001
44
0.0000000001
40
3.8358206631916087
40
3.8358206631916087
40
3.8358206631916087
40
3.8358206631916087
40
4.0438105329741294
40
4.0438105329741294
40
4.0438105329741294
40
4.0438105329741294
10
59.92261806711879
20
-197.06142082403844
30
0
10
59.25520932086728
20
-197.0302977435083
30
0
10
58.588614917286321
20
-197.00049081892135
30
0
10
57.922618070119213
20
-196.97201754870372
30
0
0
SPLINE
5
250
100
AcDbEntity
8
0
100
AcDbSpline
70
0
71
3
72
8
73
4
74
0
42
0.000000001
43
0.0000000001
44
0.0000000001
40
4.1479540139466176
40
4.1479540139466176
40
4.1479540139466176
40
4.1479540139466176
40
4.3564541224525168
40
4.3564541224525168
40
4.3564541224525168
40
4.3564541224525168
10
56.922618070037991
20
-196.9302519140972
30
0
10
56.255532796801397
20
-196.90305199416659
30
0
10
55.588938931386949
20
-196.87720102392626
30
0
10
54.922618067164741
20
-196.85271657637736
30
0
0
LINE
5
251
100
AcDbEntity
8
0
100
AcDbLine
10
-18.922618070052764
20
-197.55491709806569
30
0
11
-18.922618070052735
21
-192.99999999999997
31
-2.0343456331712796e-16
0
LINE
5
252
100
AcDbEntity
8
0
100
AcDbLine
10
-19.922618070052813
20
-192.99999999999997
30
0
11
-19.922618070052849
21
-197.61831205892798
31
2.1399194509630315e-16
0
LINE
5
253
100
AcDbEntity
8
0
100
AcDbLine
10
-18.922618070052735
20
-192.99999999999997
30
-2.0343456331712796e-16
11
-19.922618070052813
21
-192.99999999999997
31
0
0
LWPOLYLINE
5
254
100
AcDbEntity
8
0
100
AcDbPolyline
90
4
70
1
43
0.0
10
-13.922618070052799
20
-92.999999999999986
10
-13.922618070052835
20
-132.99999999999994
10
-12.922618070052803
20
-133
10
-12.922618070052794
20
-92.999999999999957
0
LWPOLYLINE
5
255
100
AcDbEntity
8
0
100
AcDbPolyline
90
4
70
1
43
0.0
10
-19.92261807005282
20
-142.99999999999997
10
-19.922618070052813
20
-182.99999999999997
10
-18.922618070052817
20
-182.99999999999997
10
-18.922618070052835
20
-142.99999999999997
0
LWPOLYLINE
5
256
100
AcDbEntity
8
0
100
AcDbPolyline
90
4
70
1
43
0.0
10
-37.922618070052806
20
-142.99999999999997
10
-37.922618070052827
20
-182.99999999999997
10
-36.92261807005282
20
-182.99999999999997
10
-36.922618070052799
20
-142.99999999999997
0
LWPOLYLINE
5
257
100
AcDbEntity
8
0
100
AcDbPolyline
90
4
70
1
43
0.0
10
7.0773819299471752
20
-117.99999999999999
10
7.0773819299472018
20
-157.99999999999997
10
8.0773819299471796
20
-158
10
8.0773819299472223
20
-117.99999999999997
0
LWPOLYLINE
5
258
100
AcDbEntity
8
0
100
AcDbPolyline
90
4
70
1
43
0.0
10
-37.922618070052792
20
-92.999999999999986
10
-37.922618070052813
20
-132.99999999999997
10
-36.922618070052813
20
-133
10
-36.92261807005282
20
-92.999999999999957
0
LWPOLYLINE
5
259
100
AcDbEntity
8
0
100
AcDbPolyline
90
4
70
1
43
0.0
10
-43.922618070052799
20
-92.999999999999972
10
-43.92261807005282
20
-132.99999999999997
10
-42.922618070052827
20
-133
10
-42.922618070052813
20
-92.999999999999972
0
LWPOLYLINE
5
260
100
AcDbEntity
8
0
100
AcDbPolyline
90
4
70
1
43
0.0
10
-1.9226180700528062
20
-92.999999999999986
10
-1.9226180700527706
20
-132.99999999999997
10
-0.92261807005280971
20
-133
10
-0.92261807005277419
20
-92.999999999999986
0
LWPOLYLINE
5
261
100
AcDbEntity
8
0
100
AcDbPolyline
90
4
70
1
43
0.0
10
-4.9226180700527689
20
-117.99999999999996
10
-4.9226180700528221
20
-157.99999999999997
10
-3.9226180700528435
20
-158
10
-3.9226180700528523
20
-117.99999999999997
0
LWPOLYLINE
5
262
100
AcDbEntity
8
0
100
AcDbPolyline
90
4
70
1
43
0.0
10
-34.92261807005282
20
-117.99999999999997
10
-34.922618070052813
20
-157.99999999999997
10
-33.922618070052849
20
-158
10
-33.922618070052806
20
-117.99999999999999
0
LWPOLYLINE
5
263
100
AcDbEntity
8
0
100
AcDbPolyline
90
4
70
1
43
0.0
10
-31.922618070052813
20
-92.999999999999986
10
-31.922618070052799
20
-132.99999999999997
10
-30.92261807005282
20
-133
10
-30.92261807005281
20
-92.999999999999972
0
LWPOLYLINE
5
264
100
AcDbEntity
8
0
100
AcDbPolyline
90
4
70
1
43
0.0
10
-1.9226180700528239
20
-142.99999999999997
10
-1.9226180700528328
20
-182.99999999999997
10
-0.9226180700528186
20
-183
10
-0.9226180700528186
20
-142.99999999999997
0
LWPOLYLINE
5
265
100
AcDbEntity
8
0
100
AcDbPolyline
90
4
70
1
43
0.0
10
-7.9226180700528204
20
-142.99999999999997
10
-7.9226180700527671
20
-182.99999999999997
10
-6.9226180700528328
20
-182.99999999999997
10
-6.9226180700528506
20
-142.99999999999997
0
SPLINE
5
266
100
AcDbEntity
8
0
100
AcDbSpline
70
0
71
3
72
8
73
4
74
0
42
0.000000001
43
0.0000000001
44
0.0000000001
40
-2.7892742504751236
40
-2.7892742504751236
40
-2.7892742504751236
40
-2.7892742504751236
40
-2.5778418462218613
40
-2.5778418462218613
40
-2.5778418462218613
40
-2.5778418462218613
10
-19.922618062871251
20
-197.61831205938518
30
0
10
-20.589381413577552
20
-197.66111283889941
30
0
10
-21.255980202039169
20
-197.7049574170023
30
0
10
-21.922618070052842
20
-197.74980619999155
30
0
0
LINE
5
267
100
AcDbEntity
8
0
100
AcDbLine
10
-21.922618070052842
20
-197.74980619999153
30
0
11
-21.922618070052842
21
-167.99999999999997
31
4.1665637608171113e-17
0
LINE
5
268
100
AcDbEntity
8
0
100
AcDbLine
10
-21.922618070052842
20
-167.99999999999997
30
4.1665637608171113e-17
11
-22.922618070052827
21
-167.99999999999997
31
0
0
LINE
5
269
100
AcDbEntity
8
0
100
AcDbLine
10
-22.922618070052827
20
-167.99999999999997
30
0
11
-22.922618070052827
21
-197.81782678724971
31
-3.033793428978852e-17
0
SPLINE
5
270
100
AcDbEntity
8
0
100
AcDbSpline
70
0
71
3
72
8
73
4
74
0
42
0.000000001
43
0.0000000001
44
0.0000000001
40
-2.4721268474875071
40
-2.4721268474875071
40
-2.4721268474875071
40
-2.4721268474875071
40
-2.2607797523396544
40
-2.2607797523396544
40
-2.2607797523396544
40
-2.2607797523396544
10
-22.92261807005292
20
-197.81782678724971
30
0
10
-23.589076617367056
20
-197.86365135269705
30
0
10
-24.255675314566673
20
-197.91045950747338
30
0
10
-24.922618070052796
20
-197.95821160984318
30
0
0
LINE
5
271
100
AcDbEntity
8
0
100
AcDbLine
10
-24.922618070052796
20
-197.95821160984318
30
0
11
-24.92261807005282
21
-192.99999999999997
31
-2.7059659121916907e-16
0
LINE
5
272
100
AcDbEntity
8
0
100
AcDbLine
10
-24.92261807005282
20
-192.99999999999997
30
-2.7059659121916907e-16
11
-25.922618070052778
21
-192.99999999999997
31
0
0
LINE
5
273
100
AcDbEntity
8
0
100
AcDbLine
10
-25.922618070052778
20
-192.99999999999997
30
0
11
-25.922618070052845
21
-198.03049183099805
31
2.8263366608184044e-16
0
SPLINE
5
274
100
AcDbEntity
8
0
100
AcDbSpline
70
0
71
3
72
8
73
4
74
0
42
0.000000001
43
0.0000000001
44
0.0000000001
40
-2.1551799023953713
40
-2.1551799023953713
40
-2.1551799023953713
40
-2.1551799023953713
40
-1.9442087365500875
40
-1.9442087365500875
40
-1.9442087365500875
40
-1.9442087365500875
10
-25.922618070052792
20
-198.03049183099805
30
0
10
-26.588769354698982
20
-198.07909071554229
30
0
10
-27.25536603667009
20
-198.12861043499544
30
0
10
-27.922618070052827
20
-198.17901151515585
30
0
0
LINE
5
275
100
AcDbEntity
8
0
100
AcDbLine
10
-27.922618070052827
20
-198.17901151515585
30
0
11
-27.922618070052827
21
-167.99999999999997
31
-2.981140586985772e-17
0
LINE
5
276
100
AcDbEntity
8
0
100
AcDbLine
10
-27.922618070052827
20
-167.99999999999997
30
-2.981140586985772e-17
11
-28.922618070052827
21
-167.99999999999997
31
0
0
LINE
5
277
100
AcDbEntity
8
0
100
AcDbLine
10
-28.922618070052827
20
-167.99999999999997
30
0
11
-28.92261807005287
21
-198.25516200182346
31
4.2493009415082e-17
0
SPLINE
5
278
100
AcDbEntity
8
0
100
AcDbSpline
70
0
71
3
72
8
73
4
74
0
42
0.000000001
43
0.0000000001
44
0.0000000001
40
-1.8388702166376973
40
-1.8388702166376973
40
-1.8388702166376973
40
-1.8388702166376973
40
-1.6285396475802667
40
-1.6285396475802667
40
-1.6285396475802667
40
-1.6285396475802667
10
-28.922618070052827
20
-198.25516200182349
30
0
10
-29.588550566701084
20
-198.30627769481382
30
0
10
-30.255738293070181
20
-198.3582893288692
30
0
10
-30.922618076965335
20
-198.41101609266155
30
0
0
LINE
5
279
100
AcDbEntity
8
0
100
AcDbLine
10
-30.922618076965328
20
-198.4110160926615
30
0
11
-30.922618070052827
21
-192.99999999999997
31
2.0910782663174927e-16
0
LINE
5
280
100
AcDbEntity
8
0
100
AcDbLine
10
-30.922618070052827
20
-192.99999999999997
30
2.0910782663174927e-16
11
-31.922618070052813
21
-192.99999999999997
31
0
0
LINE
5
281
100
AcDbEntity
8
0
100
AcDbLine
10
-31.922618070052813
20
-192.99999999999997
30
0
11
-31.922618070052824
21
-198.4906262543868
31
-1.9585007154041007e-16
0
SPLINE
5
282
100
AcDbEntity
8
0
100
AcDbSpline
70
0
71
3
72
8
73
4
74
0
42
0.000000001
43
0.0000000001
44
0.0000000001
40
-1.5233622144135166
40
-1.5233622144135166
40
-1.5233622144135166
40
-1.5233622144135166
40
-1.312783304593873
40
-1.312783304593873
40
-1.312783304593873
40
-1.312783304593873
10
-31.922618069507884
20
-198.49062625442991
30
0
10
-32.589722468579325
20
-198.54409300202542
30
0
10
-33.256318472024319
20
-198.59822568092096
30
0
10
-33.922618070052778
20
-198.65297413409294
30
0
0
LINE
5
283
100
AcDbEntity
8
0
100
AcDbLine
10
-33.922618070052785
20
-198.65297413409291
30
0
11
-33.922618070052835
21
-167.99999999999997
31
4.4636947458937452e-16
0
LINE
5
284
100
AcDbEntity
8
0
100
AcDbLine
10
-33.922618070052835
20
-167.99999999999997
30
4.4636947458937452e-16
11
-34.922618070052813
21
-167.99999999999997
31
0
0
LINE
5
285
100
AcDbEntity
8
0
100
AcDbLine
10
-34.922618070052813
20
-167.99999999999997
30
0
11
-34.922618070052835
21
-198.73561447683159
31
-4.3260709289867124e-16
0
SPLINE
5
286
100
AcDbEntity
8
0
100
AcDbSpline
70
0
71
3
72
8
73
4
74
0
42
0.000000001
43
0.0000000001
44
0.0000000001
40
-1.2074150847976142
40
-1.2074150847976142
40
-1.2074150847976142
40
-1.2074150847976142
40
-0.99660293875859107
40
-0.99660293875859107
40
-0.99660293875859107
40
-0.99660293875859107
10
-34.922618070052842
20
-198.73561447683159
30
0
10
-35.589410110187657
20
-198.79102789701105
30
0
10
-36.256008622497795
20
-198.8470332794968
30
0
10
-36.922618070667923
20
-198.90358015032058
30
0
0
LINE
5
287
100
AcDbEntity
8
0
100
AcDbLine
10
-36.922618070667923
20
-198.90358015032058
30
0
11
-36.92261807005282
21
-192.99999999999997
31
1.2707943302569473e-16
0
LINE
5
288
100
AcDbEntity
8
0
100
AcDbLine
10
-36.92261807005282
20
-192.99999999999997
30
1.2707943302569473e-16
11
-37.922618070052827
21
-192.99999999999997
31
0
0
LINE
5
289
100
AcDbEntity
8
0
100
AcDbLine
10
-37.922618070052827
20
-192.99999999999997
30
0
11
-37.922618070052806
21
-198.98880473593093
31
-1.1288668845294866e-16
0
SPLINE
5
290
100
AcDbEntity
8
0
100
AcDbSpline
70
0
71
3
72
8
73
4
74
0
42
0.000000001
43
0.0000000001
44
0.0000000001
40
-0.89119133612981261
40
-0.89119133612981261
40
-0.89119133612981261
40
-0.89119133612981261
40
-0.68043724588437104
40
-0.68043724588437104
40
-0.68043724588437104
40
-0.68043724588437104
10
-37.922618071247804
20
-198.9888047358302
30
0
10
-38.589105312272835
20
-199.04586475150097
30
0
10
-39.255704473177069
20
-199.10344068158625
30
0
10
-39.922618070052835
20
-199.16148188872583
30
0
0
LINE
5
291
100
AcDbEntity
8
0
100
AcDbLine
10
-39.922618070052835
20
-199.16148188872586
30
0
11
-39.922618070052856
21
-167.99999999999997
31
3.6168592198029381e-16
0
LINE
5
292
100
AcDbEntity
8
0
100
AcDbLine
10
-39.922618070052856
20
-167.99999999999997
30
3.6168592198029381e-16
11
-40.922618070052835
21
-167.99999999999997
31
0
0
LINE
5
293
100
AcDbEntity
8
0
100
AcDbLine
10
-40.922618070052835
20
-167.99999999999997
30
0
11
-40.922618070052849
21
-199.24883092936423
31
-3.4713938456594434e-16
0
SPLINE
5
294
100
AcDbEntity
8
0
100
AcDbSpline
70
0
71
3
72
8
73
4
74
0
42
0.000000001
43
0.0000000001
44
0.0000000001
40
-0.57512671264168458
40
-0.57512671264168458
40
-0.57512671264168458
40
-0.57512671264168458
40
-0.36471866350403009
40
-0.36471866350403009
40
-0.36471866350403009
40
-0.36471866350403009
10
-40.922618070052849
20
-199.24883092936426
30
0
10
-41.588801274884233
20
-199.3072284028483
30
0
10
-42.255399195818157
20
-199.36606435779743
30
0
10
-42.922618096060802
20
-199.4252882293531
30
0
0
LINE
5
295
100
AcDbEntity
8
0
100
AcDbLine
10
-42.922618096060802
20
-199.4252882293531
30
0
11
-42.922618070052835
21
-192.99999999999997
31
4.0197584434556122e-17
0
LINE
5
296
100
AcDbEntity
8
0
100
AcDbLine
10
-42.922618070052835
20
-192.99999999999997
30
4.0197584434556122e-17
11
-43.92261807005282
21
-192.99999999999997
31
0
0
LINE
5
297
100
AcDbEntity
8
0
100
AcDbLine
10
-43.92261807005282
20
-192.99999999999997
30
0
11
-43.922618070052827
21
-199.5142907915166
31
-2.5375680748349367e-17
0
SPLINE
5
298
100
AcDbEntity
8
0
100
AcDbSpline
70
0
71
3
72
8
73
4
74
0
42
0.000000001
43
0.0000000001
44
0.0000000001
40
-0.25965332568745786
40
-0.25965332568745786
40
-0.25965332568745786
40
-0.25965332568745786
40
-0.049881257238852159
40
-0.049881257238852159
40
-0.049881257238852159
40
-0.049881257238852159
10
-43.922618100980401
20
-199.51429078880295
30
0
10
-44.588491307905969
20
-199.57370928959492
30
0
10
-45.25508617513416
20
-199.63348823192689
30
0
10
-45.922618070730159
20
-199.69357736386348
30
0
0
LINE
5
299
100
AcDbEntity
8
0
100
AcDbLine
10
-45.922618070730159
20
-199.69357736386345
30
0
11
-45.922618070052799
21
-168.00000000000006
31
2.7307422480080784e-16
0
LINE
5
300
100
AcDbEntity
8
0
100
AcDbLine
10
-45.922618070052799
20
-168.00000000000006
30
2.7307422480080784e-16
11
-46.922618070052742
21
-168.00000000000006
31
1.1832913578315177e-29
0
LINE
5
301
100
AcDbEntity
8
0
100
AcDbLine
10
-46.922618070052742
20
-168.00000000000006
30
1.1832913578315177e-29
11
-46.922618070052835
21
-199.78189241033945
31
-2.5836681510801012e-16
0
LINE
5
302
100
AcDbEntity
8
0
100
AcDbLine
10
-46.922618070052835
20
-199.78189241033945
30
-2.5836681510801012e-16
11
-46.937816850458809
21
-199.78320899464634
31
0
0
LINE
5
303
100
AcDbEntity
8
0
100
AcDbLine
10
-46.937816850459377
20
-76.216791005353826
30
2.8632445377248655e-17
11
-46.922618070052707
21
-76.218107589660789
31
2.1925533171164001e-19
0
LINE
5
304
100
AcDbEntity
8
0
100
AcDbLine
10
-46.922618070052707
20
-76.218107589660789
30
2.1925533171164001e-19
11
-46.92261807005282
21
-107.9999999999999
31
2.9674469720451194e-16
0
LINE
5
305
100
AcDbEntity
8
0
100
AcDbLine
10
-46.92261807005282
20
-107.9999999999999
30
2.9674469720451194e-16
11
-45.922618070052835
21
-107.99999999999999
31
0
0
LINE
5
306
100
AcDbEntity
8
0
100
AcDbLine
10
-45.922618070052835
20
-107.99999999999999
30
0
11
-45.922618070052827
21
-76.30642263179594
31
-2.8203728822463248e-16
0
SPLINE
5
307
100
AcDbEntity
8
0
100
AcDbSpline
70
0
71
3
72
8
73
4
74
0
42
0.000000001
43
0.0000000001
44
0.0000000001
40
0.10726778344769572
40
0.10726778344769572
40
0.10726778344769572
40
0.10726778344769572
40
0.30990489170600882
40
0.30990489170600882
40
0.30990489170600882
40
0.30990489170600882
10
-45.922618094699331
20
-76.306422633979096
30
0
10
-45.253121712793359
20
-76.366688602830095
30
0
10
-44.586573378635357
20
-76.426461854831558
30
0
10
-43.922618070052842
20
-76.485709213957065
30
0
0
LINE
5
308
100
AcDbEntity
8
0
100
AcDbLine
10
-43.922618070052842
20
-76.485709213957065
30
0
11
-43.922618070052806
21
-82.999999999999972
31
-2.5375681659903781e-17
0
LINE
5
309
100
AcDbEntity
8
0
100
AcDbLine
10
-43.922618070052806
20
-82.999999999999972
30
-2.5375681659903781e-17
11
-42.922618070052827
21
-83
31
0
0
LINE
5
310
100
AcDbEntity
8
0
100
AcDbLine
10
-42.922618070052827
20
-83
30
0
11
-42.92261807005282
21
-76.574711772955681
31
4.0197585197530557e-17
0
SPLINE
5
311
100
AcDbEntity
8
0
100
AcDbSpline
70
0
71
3
72
8
73
4
74
0
42
0.000000001
43
0.0000000001
44
0.0000000001
40
0.41183283505399415
40
0.41183283505399415
40
0.41183283505399415
40
0.41183283505399415
40
0.61679155234934258
40
0.61679155234934258
40
0.61679155234934258
40
0.61679155234934258
10
-42.922618070052813
20
-76.574711772955681
30
0
10
-42.253603559511888
20
-76.634095026968623
30
0
10
-41.587059242548925
20
-76.692924303307919
30
0
10
-40.922618110013872
20
-76.751169067132977
30
0
0
LINE
5
312
100
AcDbEntity
8
0
100
AcDbLine
10
-40.922618110013872
20
-76.751169067132977
30
0
11
-40.92261807005282
21
-107.99999999999997
31
2.0797212890391062e-16
0
LINE
5
313
100
AcDbEntity
8
0
100
AcDbLine
10
-40.92261807005282
20
-107.99999999999997
30
2.0797212890391062e-16
11
-39.922618070052842
21
-107.99999999999999
31
0
0
LINE
5
314
100
AcDbEntity
8
0
100
AcDbLine
10
-39.922618070052842
20
-107.99999999999999
30
0
11
-39.922618070052835
21
-76.838518104663635
31
-1.934255914331507e-16
0
SPLINE
5
315
100
AcDbEntity
8
0
100
AcDbSpline
70
0
71
3
72
8
73
4
74
0
42
0.000000001
43
0.0000000001
44
0.0000000001
40
0.71977316462592389
40
0.71977316462592389
40
0.71977316462592389
40
0.71977316462592389
40
0.92661153132665919
40
0.92661153132665919
40
0.92661153132665919
40
0.92661153132665919
10
-39.922618108317771
20
-76.83851810794414
30
0
10
-39.254122887965067
20
-76.896696963120093
30
0
10
-38.587581872760538
20
-76.954265674826217
30
0
10
-37.922618070052877
20
-77.01119526427226
30
0
0
LINE
5
316
100
AcDbEntity
8
0
100
AcDbLine
10
-37.922618070052877
20
-77.01119526427226
30
0
11
-37.922618070052792
21
-82.999999999999972
31
-1.1288668848679671e-16
0
LINE
5
317
100
AcDbEntity
8
0
100
AcDbLine
10
-37.922618070052792
20
-82.999999999999972
30
-1.1288668848679671e-16
11
-36.92261807005282
21
-82.999999999999972
31
-2.9582283945787943e-30
0
LINE
5
318
100
AcDbEntity
8
0
100
AcDbLine
10
-36.92261807005282
20
-82.999999999999972
30
-2.9582283945787943e-30
11
-36.922618070052813
21
-77.09641984973176
31
1.2707943304298853e-16
0
SPLINE
5
319
100
AcDbEntity
8
0
100
AcDbSpline
70
0
71
3
72
8
73
4
74
0
42
0.000000001
43
0.0000000001
44
0.0000000001
40
1.0304141748395137
40
1.0304141748395137
40
1.0304141748395137
40
1.0304141748395137
40
1.2386459391553679
40
1.2386459391553679
40
1.2386459391553679
40
1.2386459391553679
10
-36.922618070052813
20
-77.09641984973176
30
0
10
-36.254672793444456
20
-77.153080035657965
30
0
10
-35.588134328456874
20
-77.209078126197937
30
0
10
-34.922618063547439
20
-77.264385523709137
30
0
0
LINE
5
320
100
AcDbEntity
8
0
100
AcDbLine
10
-34.922618063547446
20
-77.264385523709137
30
0
11
-34.92261807005282
21
-107.99999999999997
31
1.2250441923504958e-16
0
LINE
5
321
100
AcDbEntity
8
0
100
AcDbLine
10
-34.92261807005282
20
-107.99999999999997
30
1.2250441923504958e-16
11
-33.922618070052827
21
-108
31
0
0
LINE
5
322
100
AcDbEntity
8
0
100
AcDbLine
10
-33.922618070052827
20
-108
30
0
11
-33.922618070052827
21
-77.347025867196564
31
-1.0874203750845116e-16
0
SPLINE
5
323
100
AcDbEntity
8
0
100
AcDbSpline
70
0
71
3
72
8
73
4
74
0
42
0.000000001
43
0.0000000001
44
0.0000000001
40
1.3430170940947059
40
1.3430170940947059
40
1.3430170940947059
40
1.3430170940947059
40
1.5521214675739536
40
1.5521214675739536
40
1.5521214675739536
40
1.5521214675739536
10
-33.922618062150711
20
-77.347025866556493
30
0
10
-33.25524486967069
20
-77.40186253474819
30
0
10
-32.588708058110932
20
-77.455988300433958
30
0
10
-31.922618070052842
20
-77.509373745526517
30
0
0
LINE
5
324
100
AcDbEntity
8
0
100
AcDbLine
10
-31.922618070052845
20
-77.509373745526517
30
0
11
-31.922618070052799
21
-82.999999999999986
31
-1.9585007152597984e-16
0
LINE
5
325
100
AcDbEntity
8
0
100
AcDbLine
10
-31.922618070052799
20
-82.999999999999986
30
-1.9585007152597984e-16
11
-30.922618070052835
21
-82.999999999999986
31
0
0
LINE
5
326
100
AcDbEntity
8
0
100
AcDbLine
10
-30.922618070052835
20
-82.999999999999986
30
0
11
-30.92261807005281
21
-77.588983907885051
31
2.0910782681267452e-16
0
SPLINE
5
327
100
AcDbEntity
8
0
100
AcDbSpline
70
0
71
3
72
8
73
4
74
0
42
0.000000001
43
0.0000000001
44
0.0000000001
40
1.6567942058391651
40
1.6567942058391651
40
1.6567942058391651
40
1.6567942058391651
40
1.8662278794341001
40
1.8662278794341001
40
1.8662278794341001
40
1.8662278794341001
10
-30.92261807005281
20
-77.588983907885094
30
0
10
-30.255829362646107
20
-77.641703470721581
30
0
10
-29.589293229282056
20
-77.693665299840518
30
0
10
-28.922618069542459
20
-77.744837998215772
30
0
0
LINE
5
328
100
AcDbEntity
8
0
100
AcDbLine
10
-28.922618069542459
20
-77.744837998215786
30
0
11
-28.922618070052817
21
-107.99999999999997
31
4.2493009402098335e-17
0
LINE
5
329
100
AcDbEntity
8
0
100
AcDbLine
10
-28.922618070052817
20
-107.99999999999997
30
4.2493009402098335e-17
11
-27.92261807005282
21
-108
31
0
0
LINE
5
330
100
AcDbEntity
8
0
100
AcDbLine
10
-27.92261807005282
20
-108
30
0
11
-27.922618070052827
21
-77.820988485206129
31
-2.9811405809569025e-17
0
SPLINE
5
331
100
AcDbEntity
8
0
100
AcDbSpline
70
0
71
3
72
8
73
4
74
0
42
0.000000001
43
0.0000000001
44
0.0000000001
40
1.9709273416537008
40
1.9709273416537008
40
1.9709273416537008
40
1.9709273416537008
40
2.1801381279188559
40
2.1801381279188559
40
2.1801381279188559
40
2.1801381279188559
10
-27.922618067642571
20
-77.820988485026291
30
0
10
-27.256415748948442
20
-77.871310274674471
30
0
10
-26.589879287138611
20
-77.920828309640569
30
0
10
-25.922618070052799
20
-77.969508169001955
30
0
0
LINE
5
332
100
AcDbEntity
8
0
100
AcDbLine
10
-25.922618070052799
20
-77.969508169001955
30
0
11
-25.92261807005282
21
-82.999999999999986
31
-2.7247784623074078e-16
0
LINE
5
333
100
AcDbEntity
8
0
100
AcDbLine
10
-25.92261807005282
20
-82.999999999999986
30
-2.7247784623074078e-16
11
-24.922618070052796
21
-82.999999999999986
31
-2.9582283945787943e-30
0
LINE
5
334
100
AcDbEntity
8
0
100
AcDbLine
10
-24.922618070052796
20
-82.999999999999986
30
-2.9582283945787943e-30
11
-24.922618070052806
21
-78.041788390156853
31
2.8451492109341808e-16
0
SPLINE
5
335
100
AcDbEntity
8
0
100
AcDbSpline
70
0
71
3
72
8
73
4
74
0
42
0.000000001
43
0.0000000001
44
0.0000000001
40
2.2845885902416834
40
2.2845885902416834
40
2.2845885902416834
40
2.2845885902416834
40
2.4930297795772001
40
2.4930297795772001
40
2.4930297795772001
40
2.4930297795772001
10
-24.92261807005282
20
-78.041788390156881
30
0
10
-24.256993350453779
20
-78.089446123131239
30
0
10
-23.590455544385396
20
-78.136253834607345
30
0
10
-22.922618070052792
20
-78.182173212750257
30
0
0
LINE
5
336
100
AcDbEntity
8
0
100
AcDbLine
10
-22.922618070052799
20
-78.182173212750257
30
0
11
-22.922618070052792
21
-107.99999999999997
31
-3.033793428978852e-17
0
LINE
5
337
100
AcDbEntity
8
0
100
AcDbLine
10
-22.922618070052792
20
-107.99999999999997
30
-3.033793428978852e-17
11
-21.922618070052806
21
-107.99999999999999
31
0
0
LINE
5
338
100
AcDbEntity
8
0
100
AcDbLine
10
-21.922618070052806
20
-107.99999999999999
30
0
11
-21.922618070052799
21
-78.250193800008418
31
4.166563760817703e-17
0
SPLINE
5
339
100
AcDbEntity
8
0
100
AcDbSpline
70
0
71
3
72
8
73
4
74
0
42
0.000000001
43
0.0000000001
44
0.0000000001
40
2.596961823344865
40
2.596961823344865
40
2.596961823344865
40
2.596961823344865
40
2.8041062176185569
40
2.8041062176185569
40
2.8041062176185569
40
2.8041062176185569
10
-21.922618070052753
20
-78.250193800008418
30
0
10
-21.25755191749689
20
-78.294936844141745
30
0
10
-20.591011791454825
20
-78.338782504104927
30
0
10
-19.922618070052813
20
-78.38168794015381
30
0
0
LINE
5
340
100
AcDbEntity
8
0
100
AcDbLine
10
-19.92261807005281
20
-78.38168794015381
30
0
11
-19.922618070052813
21
-82.999999999999957
31
2.139919452492051e-16
0
LINE
5
341
100
AcDbEntity
8
0
100
AcDbLine
10
-19.922618070052813
20
-82.999999999999957
30
2.139919452492051e-16
11
-18.922618070052817
21
-82.999999999999972
31
0
0
LINE
5
342
100
AcDbEntity
8
0
100
AcDbLine
10
-18.922618070052817
20
-82.999999999999972
30
0
11
-18.922618070052792
21
-78.445082901014558
31
-2.034345634702784e-16
0
SPLINE
5
343
100
AcDbEntity
8
0
100
AcDbSpline
70
0
71
3
72
8
73
4
74
0
42
0.000000001
43
0.0000000001
44
0.0000000001
40
2.9072634855984978
40
2.9072634855984978
40
2.9072634855984978
40
2.9072634855984978
40
3.1126798226100516
40
3.1126798226100516
40
3.1126798226100516
40
3.1126798226100516
10
-18.922618070052792
20
-78.445082901014516
30
0
10
-18.25787612431543
20
-78.486690263389619
30
0
10
-17.589949669101699
20
-78.527419622129088
30
0
10
-16.922618070052788
20
-78.566979311048016
30
0
0
LINE
5
344
100
AcDbEntity
8
0
100
AcDbLine
10
-16.922618070052788
20
-78.566979311048001
30
0
11
-16.922618070052824
21
-107.99999999999997
31
4.6069048947083833e-16
0
LINE
5
345
100
AcDbEntity
8
0
100
AcDbLine
10
-16.922618070052824
20
-107.99999999999997
30
4.6069048947083833e-16
11
-15.922618070052842
21
-107.99999999999997
31
-2.9582283945787943e-30
0
LINE
5
346
100
AcDbEntity
8
0
100
AcDbLine
10
-15.922618070052842
20
-107.99999999999997
30
-2.9582283945787943e-30
11
-15.922618070052854
21
-78.625408011142525
31
-4.5096015624925365e-16
0
SPLINE
5
347
100
AcDbEntity
8
0
100
AcDbSpline
70
0
71
3
72
8
73
4
74
0
42
0.000000001
43
0.0000000001
44
0.0000000001
40
3.2154007137820702
40
3.2154007137820702
40
3.2154007137820702
40
3.2154007137820702
40
3.4214886034564085
40
3.4214886034564085
40
3.4214886034564085
40
3.4214886034564085
10
-15.922618070052792
20
-78.625408011142582
30
0
10
-15.254587232598817
20
-78.663867338329794
30
0
10
-14.587990886143327
20
-78.701088250462249
30
0
10
-13.922618070052817
20
-78.737052202957045
30
0
0
LINE
5
348
100
AcDbEntity
8
0
100
AcDbLine
10
-13.922618070052817
20
-78.737052202957045
30
0
11
-13.922618070052817
21
-82.999999999999986
31
1.548119072452495e-16
0
LINE
5
349
100
AcDbEntity
8
0
100
AcDbLine
10
-13.922618070052817
20
-82.999999999999986
30
1.548119072452495e-16
11
-12.922618070052811
21
-83
31
-2.9582283945787943e-30
0
LINE
5
350
100
AcDbEntity
8
0
100
AcDbLine
10
-12.922618070052811
20
-83
30
-2.9582283945787943e-30
11
-12.922618070052829
21
-78.79020116891185
31
-1.4596082638453368e-16
0
SPLINE
5
351
100
AcDbEntity
8
0
100
AcDbSpline
70
0
71
3
72
8
73
4
74
0
42
0.000000001
43
0.0000000001
44
0.0000000001
40
3.5248254586156023
40
3.5248254586156023
40
3.5248254586156023
40
3.5248254586156023
40
3.7320074205830296
40
3.7320074205830296
40
3.7320074205830296
40
3.7320074205830296
10
-12.922618070052811
20
-78.790201168911864
30
0
10
-12.254893159054898
20
-78.825084339043087
30
0
10
-11.588297918859238
20
-78.85868809520997
30
0
10
-10.922618070052792
20
-78.890994636878148
30
0
0
LINE
5
352
100
AcDbEntity
8
0
100
AcDbLine
10
-10.92261807005279
20
-78.890994636878148
30
0
11
-10.922618070052819
21
-107.99999999999999
31
4.0673109821062839e-16
0
LINE
5
353
100
AcDbEntity
8
0
100
AcDbLine
10
-10.922618070052819
20
-107.99999999999999
30
4.0673109821062839e-16
11
-9.9226180700528346
21
-108
31
0
0
LINE
5
354
100
AcDbEntity
8
0
100
AcDbLine
10
-9.9226180700528346
20
-108
30
0
11
-9.9226180700528221
21
-78.938579175824586
31
-3.9880668059745275e-16
0
SPLINE
5
355
100
AcDbEntity
8
0
100
AcDbSpline
70
0
71
3
72
8
73
4
74
0
42
0.000000001
43
0.0000000001
44
0.0000000001
40
3.8358207017138164
40
3.8358207017138164
40
3.8358207017138164
40
3.8358207017138164
40
4.0438105719789528
40
4.0438105719789528
40
4.0438105719789528
40
4.0438105719789528
10
-9.9226180700527777
20
-78.938579175824572
30
0
10
-9.255209322642175
20
-78.969702256412489
30
0
10
-8.5886149180586457
20
-78.999509181045511
30
0
10
-7.9226180700528115
20
-79.027982451298925
30
0
0
LINE
5
356
100
AcDbEntity
8
0
100
AcDbLine
10
-7.9226180700528124
20
-79.027982451298925
30
0
11
-7.9226180700527848
21
-82.999999999999972
31
1.0636228820488666e-16
0
LINE
5
357
100
AcDbEntity
8
0
100
AcDbLine
10
-7.9226180700527848
20
-82.999999999999972
30
1.0636228820488666e-16
11
-6.9226180700528328
21
-82.999999999999986
31
2.9582283945787943e-30
0
LINE
5
358
100
AcDbEntity
8
0
100
AcDbLine
10
-6.9226180700528328
20
-82.999999999999986
30
2.9582283945787943e-30
11
-6.9226180700528506
21
-79.069748086576254
31
-9.9406912716433787e-17
0
SPLINE
5
359
100
AcDbEntity
8
0
100
AcDbSpline
70
0
71
3
72
8
73
4
74
0
42
0.000000001
43
0.0000000001
44
0.0000000001
40
4.1479540539293023
40
4.1479540539293023
40
4.1479540539293023
40
4.1479540539293023
40
4.356454161818748
40
4.356454161818748
40
4.356454161818748
40
4.356454161818748
10
-6.9226180617694677
20
-79.069748086239741
30
0
10
-6.2555327913820502
20
-79.096948006043192
30
0
10
-5.588938928979128
20
-79.122798976160993
30
0
10
-4.9226180679415954
20
-79.147283423593933
30
0
0
LINE
5
360
100
AcDbEntity
8
0
100
AcDbLine
10
-4.9226180679415945
20
-79.147283423593933
30
0
11
-4.9226180700528221
21
-107.99999999999997
31
3.6405044140297747e-16
0
LINE
5
361
100
AcDbEntity
8
0
100
AcDbLine
10
-4.9226180700528221
20
-107.99999999999997
30
3.6405044140297747e-16
11
-3.9226180700527991
21
-107.99999999999997
31
0
0
LINE
5
362
100
AcDbEntity
8
0
100
AcDbLine
10
-3.9226180700527991
20
-107.99999999999997
30
0
11
-3.9226180700528257
21
-79.183007143870555
31
-3.5810124689940451e-16
0
SPLINE
5
363
100
AcDbEntity
8
0
100
AcDbSpline
70
0
71
3
72
8
73
4
74
0
42
0.000000001
43
0.0000000001
44
0.0000000001
40
4.4607768515130042
40
4.4607768515130042
40
4.4607768515130042
40
4.4607768515130042
40
4.6694820849438461
40
4.6694820849438461
40
4.6694820849438461
40
4.6694820849438461
10
-3.9226180679190703
20
-79.183007143796743
30
0
10
-3.2558603939146913
20
-79.206142421769158
30
0
10
-2.5892667562756344
20
-79.227899634942773
30
0
10
-1.9226180700528417
20
-79.248260843749833
30
0
0
LINE
5
364
100
AcDbEntity
8
0
100
AcDbLine
10
-1.9226180700528417
20
-79.248260843749833
30
0
11
-1.9226180700527884
21
-82.999999999999986
31
6.967856673593047e-17
0
LINE
5
365
100
AcDbEntity
8
0
100
AcDbLine
10
-1.9226180700527884
20
-82.999999999999986
30
6.967856673593047e-17
11
-0.9226180700528186
21
-82.999999999999986
31
-2.9582283945787943e-30
0
LINE
5
366
100
AcDbEntity
8
0
100
AcDbLine
10
-0.9226180700528186
20
-82.999999999999986
30
-2.9582283945787943e-30
11
-0.92261807005278307
21
-79.277752178218378
31
-6.4767272952839453e-17
0
SPLINE
5
367
100
AcDbEntity
8
0
100
AcDbSpline
70
0
71
3
72
8
73
4
74
0
42
0.000000001
43
0.0000000001
44
0.0000000001
40
4.77383035029189
40
4.77383035029189
40
4.77383035029189
40
4.77383035029189
40
4.9824325396155116
40
4.9824325396155116
40
4.9824325396155116
40
4.9824325396155116
10
-0.9226180700528186
20
-79.277752178218392
30
0
10
-0.25618876440341332
20
-79.296703510174609
30
0
10
0.41040497371768847
20
-79.314251134125641
30
0
10
1.0773819333391632
20
-79.330376552324751
30
0
0
LINE
5
368
100
AcDbEntity
8
0
100
AcDbLine
10
1.0773819333391634
20
-79.330376552324765
30
0
11
1.0773819299471921
21
-107.99999999999997
31
3.3355931032707432e-16
0
LINE
5
369
100
AcDbEntity
8
0
100
AcDbLine
10
1.0773819299471921
20
-107.99999999999997
30
3.3355931032707432e-16
11
2.0773819299471619
21
-107.99999999999999
31
0
0
LINE
5
370
100
AcDbEntity
8
0
100
AcDbLine
10
2.0773819299471619
20
-107.99999999999999
30
0
11
2.0773819299472418
21
-79.353478463728081
31
-3.2971206924779293e-16
0
SPLINE
5
371
100
AcDbEntity
8
0
100
AcDbSpline
70
0
71
3
72
8
73
4
74
0
42
0.000000001
43
0.0000000001
44
0.0000000001
40
5.086652349117637
40
5.086652349117637
40
5.086652349117637
40
5.086652349117637
40
5.2948448025148789
40
5.2948448025148789
40
5.2948448025148789
40
5.2948448025148789
10
2.0773819330646504
20
-79.353478463659528
30
0
10
2.7434854966565769
20
-79.368149176050593
30
0
10
3.4100796633210306
20
-79.381393884510089
30
0
10
4.077381946199039
20
-79.393193452738856
30
0
0
LINE
5
372
100
AcDbEntity
8
0
100
AcDbLine
10
4.0773819461990399
20
-79.393193452738856
30
0
11
4.0773819299472036
21
-82.999999999999972
31
4.5542438760307554e-17
0
LINE
5
373
100
AcDbEntity
8
0
100
AcDbLine
10
4.0773819299472036
20
-82.999999999999972
30
4.5542438760307554e-17
11
5.0773819299472001
21
-83
31
0
0
LINE
5
374
100
AcDbEntity
8
0
100
AcDbLine
10
5.0773819299472001
20
-83
30
0
11
5.0773819299471823
21
-79.409783061302889
31
-4.2779713998537067e-17
0
SPLINE
5
375
100
AcDbEntity
8
0
100
AcDbSpline
70
0
71
3
72
8
73
4
74
0
42
0.000000001
43
0.0000000001
44
0.0000000001
40
5.3987839953666663
40
5.3987839953666663
40
5.3987839953666663
40
5.3987839953666663
40
5.6062659866160862
40
5.6062659866160862
40
5.6062659866160862
40
5.6062659866160862
10
5.0773819390752113
20
-79.409783061161534
30
0
10
5.7431656992431135
20
-79.42009944068046
30
0
10
6.4097606030590715
20
-79.428970838056244
30
0
10
7.0773819299471867
20
-79.436377514562793
30
0
0
LINE
5
376
100
AcDbEntity
8
0
100
AcDbLine
10
7.0773819299471867
20
-79.436377514562793
30
0
11
7.0773819299471663
21
-107.99999999999999
31
3.1590660400435623e-16
0
LINE
5
377
100
AcDbEntity
8
0
100
AcDbLine
10
7.0773819299471663
20
-107.99999999999999
30
3.1590660400435623e-16
11
8.0773819299471796
21
-107.99999999999999
31
-2.9582283945787943e-30
0
LINE
5
378
100
AcDbEntity
8
0
100
AcDbLine
10
8.0773819299471796
20
-107.99999999999999
30
-2.9582283945787943e-30
11
8.0773819299471779
21
-79.446366656214437
31
-3.1424307774566922e-16
0
SPLINE
5
379
100
AcDbEntity
8
0
100
AcDbSpline
70
0
71
3
72
8
73
4
74
0
42
0.000000001
43
0.0000000001
44
0.0000000001
40
5.7097764809705573
40
5.7097764809705573
40
5.7097764809705573
40
5.7097764809705573
40
5.9162575157487671
40
5.9162575157487671
40
5.9162575157487671
40
5.9162575157487671
10
8.0773819748889188
20
-79.446366655815282
30
0
10
8.742855011409878
20
-79.45227816635952
30
0
10
9.4094509507347937
20
-79.45672910518158
30
0
10
10.077381930170654
20
-79.459699283101045
30
0
0
LINE
5
380
100
AcDbEntity
8
0
100
AcDbLine
10
10.077381930170654
20
-79.459699283101045
30
0
11
10.077381929947206
21
-82.999999999999972
31
3.4466993186980008e-17
0
LINE
5
381
100
AcDbEntity
8
0
100
AcDbLine
10
10.077381929947206
20
-82.999999999999972
30
3.4466993186980008e-17
11
11.077381929947158
21
-82.999999999999986
31
0
0
LINE
5
382
100
AcDbEntity
8
0
100
AcDbLine
10
11.077381929947158
20
-82.999999999999986
30
0
11
11.07738192994722
21
-79.463034900487685
31
-3.3911501303547601e-17
0
SPLINE
5
383
100
AcDbEntity
8
0
100
AcDbSpline
70
0
71
3
72
8
73
4
74
0
42
0.000000001
43
0.0000000001
44
0.0000000001
40
6.0191973263357799
40
6.0191973263357799
40
6.0191973263357799
40
6.0191973263357799
40
6.1219166819959678
40
6.1219166819959678
40
6.1219166819959678
40
6.1219166819959678
10
11.077381930008517
20
-79.463034900487514
30
0
10
11.410349991286663
20
-79.463775445784847
30
0
10
11.743674620888498
20
-79.464146991715054
30
0
10
12.077381929946887
20
-79.464146991715054
30
0
0
SPLINE
5
384
100
AcDbEntity
8
0
100
AcDbSpline
70
0
71
3
72
8
73
4
74
0
42
0.000000001
43
0.0000000001
44
0.0000000001
40
-6.1691209655431187
40
-6.1691209655431187
40
-6.1691209655431187
40
-6.1691209655431187
40
-6.0636302722517366
40
-6.0636302722517366
40
-6.0636302722517366
40
-6.0636302722517366
10
12.077381929947155
20
-196.53585300828462
30
0
10
11.743889947242344
20
-196.53585300828462
30
0
10
11.410565517280508
20
-196.53622407486822
30
0
10
11.077381928614162
20
-196.53696509951521
30
0
0
LINE
5
385
100
AcDbEntity
8
0
100
AcDbLine
10
11.077381928614166
20
-196.53696509951521
30
0
11
11.077381929947149
21
-192.99999999999997
31
-3.3911501304523816e-17
0
LINE
5
386
100
AcDbEntity
8
0
100
AcDbLine
10
11.077381929947149
20
-192.99999999999997
30
-3.3911501304523816e-17
11
10.077381929947224
21
-192.99999999999997
31
0
0
LINE
5
387
100
AcDbEntity
8
0
100
AcDbLine
10
10.077381929947224
20
-192.99999999999997
30
0
11
10.077381929947215
21
-196.54030071697457
31
3.4466993199747721e-17
0
SPLINE
5
388
100
AcDbEntity
8
0
100
AcDbSpline
70
0
71
3
72
8
73
4
74
0
42
0.000000001
43
0.0000000001
44
0.0000000001
40
-5.958050269813528
40
-5.958050269813528
40
-5.958050269813528
40
-5.958050269813528
40
-5.7466880206097208
40
-5.7466880206097208
40
-5.7466880206097208
40
-5.7466880206097208
10
10.077381921521493
20
-196.54030071693711
30
0
10
9.4103241111686025
20
-196.54326701203175
30
0
10
8.7437261243115909
20
-196.54771409531321
30
0
10
8.0773819190242122
20
-196.55363334468066
30
0
0
LINE
5
389
100
AcDbEntity
8
0
100
AcDbLine
10
8.0773819190242122
20
-196.55363334468066
30
0
11
8.0773819299471956
21
-167.99999999999997
31
2.408684344016772e-16
0
LINE
5
390
100
AcDbEntity
8
0
100
AcDbLine
10
8.0773819299471956
20
-167.99999999999997
30
2.408684344016772e-16
11
7.0773819299471903
21
-167.99999999999997
31
0
0
LINE
5
391
100
AcDbEntity
8
0
100
AcDbLine
10
7.0773819299471903
20
-167.99999999999997
30
0
11
7.077381929947193
21
-196.56362248591023
31
-2.3920490822944146e-16
0
SPLINE
5
392
100
AcDbEntity
8
0
100
AcDbSpline
70
0
71
3
72
8
73
4
74
0
42
0.000000001
43
0.0000000001
44
0.0000000001
40
-5.6409382605054788
40
-5.6409382605054788
40
-5.6409382605054788
40
-5.6409382605054788
40
-5.4293819714312317
40
-5.4293819714312317
40
-5.4293819714312317
40
-5.4293819714312317
10
7.0773819086094436
20
-196.56362248567362
30
0
10
6.4106296775587746
20
-196.57101952035106
30
0
10
5.7440303390280079
20
-196.57988716161557
30
0
10
5.0773819171115742
20
-196.5902169391785
30
0
0
LINE
5
393
100
AcDbEntity
8
0
100
AcDbLine
10
5.0773819171115742
20
-196.5902169391785
30
0
11
5.0773819299472089
21
-192.99999999999997
31
-4.2779714111819465e-17
0
LINE
5
394
100
AcDbEntity
8
0
100
AcDbLine
10
5.0773819299472089
20
-192.99999999999997
30
-4.2779714111819465e-17
11
4.0773819299472125
21
-192.99999999999997
31
0
0
LINE
5
395
100
AcDbEntity
8
0
100
AcDbLine
10
4.0773819299472125
20
-192.99999999999997
30
0
11
4.0773819299471592
21
-196.60680654806583
31
4.5542438942146895e-17
0
SPLINE
5
396
100
AcDbEntity
8
0
100
AcDbSpline
70
0
71
3
72
8
73
4
74
0
42
0.000000001
43
0.0000000001
44
0.0000000001
40
-5.323607492410698
40
-5.323607492410698
40
-5.323607492410698
40
-5.323607492410698
40
-5.1121460554214986
40
-5.1121460554214986
40
-5.1121460554214986
40
-5.1121460554214986
10
4.0773819153068702
20
-196.60680654780714
30
0
10
3.4109328915103188
20
-196.61859102833276
30
0
10
2.7443341734376814
20
-196.6318321321171
30
0
10
2.0773819299470908
20
-196.6465215364089
30
0
0
LINE
5
397
100
AcDbEntity
8
0
100
AcDbLine
10
2.0773819299470913
20
-196.6465215364089
30
0
11
2.077381929947153
21
-167.99999999999997
31
2.253994430419626e-16
0
LINE
5
398
100
AcDbEntity
8
0
100
AcDbLine
10
2.077381929947153
20
-167.99999999999997
30
2.253994430419626e-16
11
1.0773819299471565
21
-167.99999999999997
31
0
0
LINE
5
399
100
AcDbEntity
8
0
100
AcDbLine
10
1.0773819299471565
20
-167.99999999999997
30
0
11
1.0773819299471832
21
-196.669623447757
31
-2.21552201958235e-16
0
SPLINE
5
400
100
AcDbEntity
8
0
100
AcDbSpline
70
0
71
3
72
8
73
4
74
0
42
0.000000001
43
0.0000000001
44
0.0000000001
40
-5.0064913406557086
40
-5.0064913406557086
40
-5.0064913406557086
40
-5.0064913406557086
40
-4.795415359985129
40
-4.795415359985129
40
-4.795415359985129
40
-4.795415359985129
10
1.0773819299470322
20
-196.66962344775703
30
0
10
0.41124091209672642
20
-196.68572865550175
30
0
10
-0.2553552649971369
20
-196.70327278750025
30
0
10
-0.9226180700528186
20
-196.72224782178142
30
0
0
LINE
5
401
100
AcDbEntity
8
0
100
AcDbLine
10
-0.9226180700528186
20
-196.72224782178142
30
0
11
-0.92261807005280971
21
-192.99999999999997
31
-6.4767272952803954e-17
0
LINE
5
402
100
AcDbEntity
8
0
100
AcDbLine
10
-0.92261807005280971
20
-192.99999999999997
30
-6.4767272952803954e-17
11
-1.9226180700527795
21
-192.99999999999997
31
0
0
LINE
5
403
100
AcDbEntity
8
0
100
AcDbLine
10
-1.9226180700527795
20
-192.99999999999997
30
0
11
-1.9226180700528062
21
-196.75173915624995
31
6.9678566735894972e-17
0
SPLINE
5
404
100
AcDbEntity
8
0
100
AcDbSpline
70
0
71
3
72
8
73
4
74
0
42
0.000000001
43
0.0000000001
44
0.0000000001
40
-4.6899735494663215
40
-4.6899735494663215
40
-4.6899735494663215
40
-4.6899735494663215
40
-4.4788553630815864
40
-4.4788553630815864
40
-4.4788553630815864
40
-4.4788553630815864
10
-1.9226180700528328
20
-196.75173915624995
30
0
10
-2.589781004720928
20
-196.77211607156062
30
0
10
-3.2563775865036515
20
-196.79387552386942
30
0
10
-3.9226180700528168
20
-196.81699285627712
30
0
0
LINE
5
405
100
AcDbEntity
8
0
100
AcDbLine
10
-3.9226180700528173
20
-196.81699285627712
30
0
11
-3.9226180700528612
21
-167.99999999999997
31
1.9701026538857313e-16
0
LINE
5
406
100
AcDbEntity
8
0
100
AcDbLine
10
-3.9226180700528612
20
-167.99999999999997
30
1.9701026538857313e-16
11
-4.9226180700528221
21
-167.99999999999997
31
0
0
LINE
5
407
100
AcDbEntity
8
0
100
AcDbLine
10
-4.9226180700528221
20
-167.99999999999997
30
0
11
-4.922618070052831
21
-196.85271657648346
31
-1.9106107088381984e-16
0
SPLINE
5
408
100
AcDbEntity
8
0
100
AcDbSpline
70
0
71
3
72
8
73
4
74
0
42
0.000000001
43
0.0000000001
44
0.0000000001
40
-4.3732031749358145
40
-4.3732031749358145
40
-4.3732031749358145
40
-4.3732031749358145
40
-4.1617940933202258
40
-4.1617940933202258
40
-4.1617940933202258
40
-4.1617940933202258
10
-4.9226180700528221
20
-196.85271657648349
30
0
10
-5.5894708202132604
20
-196.87722056857416
30
0
10
-6.2560694749016221
20
-196.90307387688225
30
0
10
-6.9226180294196293
20
-196.93025191244112
30
0
0
LINE
5
409
100
AcDbEntity
8
0
100
AcDbLine
10
-6.9226180294196293
20
-196.93025191244112
30
0
11
-6.9226180700528506
21
-192.99999999999997
31
-9.9406912277858678e-17
0
LINE
5
410
100
AcDbEntity
8
0
100
AcDbLine
10
-6.9226180700528506
20
-192.99999999999997
30
-9.9406912277858678e-17
11
-7.9226180700527893
21
-192.99999999999997
31
0
0
LINE
5
411
100
AcDbEntity
8
0
100
AcDbLine
10
-7.9226180700527893
20
-192.99999999999997
30
0
11
-7.9226180700528204
21
-196.97201754510306
31
1.0636228760570342e-16
0
SPLINE
5
412
100
AcDbEntity
8
0
100
AcDbSpline
70
0
71
3
72
8
73
4
74
0
42
0.000000001
43
0.0000000001
44
0.0000000001
40
-4.0560695160625349
40
-4.0560695160625349
40
-4.0560695160625349
40
-4.0560695160625349
40
-3.8446608127854547
40
-3.8446608127854547
40
-3.8446608127854547
40
-3.8446608127854547
10
-7.9226180278989489
20
-196.97201754689871
30
0
10
-8.5891658359776635
20
-197.00051437221595
30
0
10
-9.2557646756473577
20
-197.03032364120472
30
0
10
-9.922618070052831
20
-197.06142082417531
30
0
0
LINE
5
413
100
AcDbEntity
8
0
100
AcDbLine
10
-9.922618070052831
20
-197.06142082417534
30
0
11
-9.9226180700528488
21
-167.99999999999997
31
1.5630483171514031e-16
0
LINE
5
414
100
AcDbEntity
8
0
100
AcDbLine
10
-9.9226180700528488
20
-167.99999999999997
30
1.5630483171514031e-16
11
-10.922618070052827
21
-167.99999999999997
31
0
0
LINE
5
415
100
AcDbEntity
8
0
100
AcDbLine
10
-10.922618070052827
20
-167.99999999999997
30
0
11
-10.922618070052827
21
-197.1090053631217
31
-1.4838041410196763e-16
0
SPLINE
5
416
100
AcDbEntity
8
0
100
AcDbSpline
70
0
71
3
72
8
73
4
74
0
42
0.000000001
43
0.0000000001
44
0.0000000001
40
-3.7390089366882044
40
-3.7390089366882044
40
-3.7390089366882044
40
-3.7390089366882044
40
-3.5278912433480922
40
-3.5278912433480922
40
-3.5278912433480922
40
-3.5278912433480922
10
-10.922618070052872
20
-197.10900536312175
30
0
10
-11.588859019604216
20
-197.14133913593508
30
0
10
-12.255456055696916
20
-197.17494506770652
30
0
10
-12.922618070052829
20
-197.20979883108805
30
0
0
LINE
5
417
100
AcDbEntity
8
0
100
AcDbLine
10
-12.922618070052829
20
-197.20979883108799
30
0
11
-12.922618070052829
21
-192.99999999999997
31
-1.4596082638452776e-16
0
LINE
5
418
100
AcDbEntity
8
0
100
AcDbLine
10
-12.922618070052829
20
-192.99999999999997
30
-1.4596082638452776e-16
11
-13.922618070052817
21
-193
31
5.9164567891575885e-30
0
LINE
5
419
100
AcDbEntity
8
0
100
AcDbLine
10
-13.922618070052817
20
-193
30
5.9164567891575885e-30
11
-13.922618070052835
21
-197.26294779754542
31
1.5481190732893186e-16
0
SPLINE
5
420
100
AcDbEntity
8
0
100
AcDbSpline
70
0
71
3
72
8
73
4
74
0
42
0.000000001
43
0.0000000001
44
0.0000000001
40
-3.4224582060201647
40
-3.4224582060201647
40
-3.4224582060201647
40
-3.4224582060201647
40
-3.2116945978097919
40
-3.2116945978097919
40
-3.2116945978097919
40
-3.2116945978097919
10
-13.9226180747161
20
-197.26294779729494
30
0
10
-14.589278243680956
20
-197.29898133228573
30
0
10
-15.256479574746935
20
-197.33624160605075
30
0
10
-15.922618070052899
20
-197.37459198885733
30
0
0
LINE
5
421
100
AcDbEntity
8
0
100
AcDbLine
10
-15.922618070052899
20
-197.37459198885733
30
0
11
-15.922618070052827
21
-167.99999999999997
31
1.0415135606334237e-16
0
LINE
5
422
100
AcDbEntity
8
0
100
AcDbLine
10
-15.922618070052827
20
-167.99999999999997
30
1.0415135606334237e-16
11
-16.922618070052813
21
-168
31
0
0
LINE
5
423
100
AcDbEntity
8
0
100
AcDbLine
10
-16.922618070052813
20
-168
30
0
11
-16.922618070052813
21
-197.43302068895193
31
-9.4421022841757694e-17
0
SPLINE
5
424
100
AcDbEntity
8
0
100
AcDbSpline
70
0
71
3
72
8
73
4
74
0
42
0.000000001
43
0.0000000001
44
0.0000000001
40
-3.1061860069967446
40
-3.1061860069967446
40
-3.1061860069967446
40
-3.1061860069967446
40
-2.8949593599380572
40
-2.8949593599380572
40
-2.8949593599380572
40
-2.8949593599380572
10
-16.922618070052859
20
-197.43302068895196
30
0
10
-17.589690805309004
20
-197.47256503231984
30
0
10
-18.256287745192282
20
-197.51321031718766
30
0
10
-18.922618062675262
20
-197.55491709852365
30
0
0
LWPOLYLINE
5
425
100
AcDbEntity
8
0
100
AcDbPolyline
90
4
70
1
43
0.0
10
-46.922618070052813
20
-117.9999999999999
10
-46.92261807005282
20
-157.99999999999997
10
-45.922618070052799
20
-157.99999999999994
10
-45.922618070052827
20
-117.99999999999997
0
LWPOLYLINE
5
426
100
AcDbEntity
8
0
100
AcDbPolyline
90
4
70
1
43
0.0
10
-13.922618070052817
20
-142.99999999999997
10
-13.922618070052852
20
-183
10
-12.922618070052835
20
-183
10
-12.92261807005282
20
-143
0
LWPOLYLINE
5
427
100
AcDbEntity
8
0
100
AcDbPolyline
90
4
70
1
43
0.0
10
1.0773819299472009
20
-117.99999999999997
10
1.0773819299472009
20
-157.99999999999997
10
2.0773819299471974
20
-158
10
2.0773819299471441
20
-117.99999999999997
0
LWPOLYLINE
5
428
100
AcDbEntity
8
0
100
AcDbPolyline
90
4
70
1
43
0.0
10
-31.922618070052806
20
-142.99999999999997
10
-31.922618070052813
20
-182.99999999999997
10
-30.92261807005282
20
-182.99999999999997
10
-30.92261807005282
20
-142.99999999999997
0
LWPOLYLINE
5
429
100
AcDbEntity
8
0
100
AcDbPolyline
90
4
70
1
43
0.0
10
10.07738192994718
20
-142.99999999999997
10
10.077381929947162
20
-182.99999999999997
10
11.077381929947158
20
-183
10
11.077381929947149
20
-142.99999999999997
0
LWPOLYLINE
5
430
100
AcDbEntity
8
0
100
AcDbPolyline
90
4
70
1
43
0.0
10
-10.922618070052819
20
-117.99999999999999
10
-10.922618070052783
20
-157.99999999999997
10
-9.9226180700528399
20
-157.99999999999997
10
-9.9226180700528221
20
-117.99999999999999
0
LWPOLYLINE
5
431
100
AcDbEntity
8
0
100
AcDbPolyline
90
4
70
1
43
0.0
10
-40.92261807005282
20
-117.99999999999999
10
-40.922618070052835
20
-157.99999999999997
10
-39.922618070052835
20
-158
10
-39.922618070052842
20
-117.99999999999997
0
LWPOLYLINE
5
432
100
AcDbEntity
8
0
100
AcDbPolyline
90
4
70
1
43
0.0
10
-22.922618070052803
20
-117.99999999999997
10
-22.922618070052838
20
-157.99999999999997
10
-21.922618070052835
20
-157.99999999999997
10
-21.922618070052806
20
-117.99999999999997
0
LWPOLYLINE
5
433
100
AcDbEntity
8
0
100
AcDbPolyline
90
4
70
1
43
0.0
10
-19.922618070052796
20
-92.999999999999972
10
-19.922618070052785
20
-132.99999999999994
10
-18.922618070052796
20
-133
10
-18.922618070052817
20
-92.999999999999957
0
LWPOLYLINE
5
434
100
AcDbEntity
8
0
100
AcDbPolyline
90
4
70
1
43
0.0
10
-25.922618070052845
20
-142.99999999999997
10
-25.922618070052863
20
-182.99999999999997
10
-24.92261807005281
20
-183
10
-24.92261807005282
20
-142.99999999999997
0
LWPOLYLINE
5
435
100
AcDbEntity
8
0
100
AcDbPolyline
90
4
70
1
43
0.0
10
-7.9226180700528115
20
-92.999999999999972
10
-7.9226180700528204
20
-132.99999999999997
10
-6.9226180700527928
20
-132.99999999999997
10
-6.9226180700528328
20
-92.999999999999972
0
LWPOLYLINE
5
436
100
AcDbEntity
8
0
100
AcDbPolyline
90
4
70
1
43
0.0
10
4.0773819299472125
20
-143
10
4.0773819299472036
20
-182.99999999999997
10
5.0773819299471645
20
-182.99999999999997
10
5.0773819299471912
20
-142.99999999999997
0
LWPOLYLINE
5
437
100
AcDbEntity
8
0
100
AcDbPolyline
90
4
70
1
43
0.0
10
-43.922618070052806
20
-142.99999999999997
10
-43.922618070052827
20
-182.99999999999997
10
-42.922618070052835
20
-182.99999999999997
10
-42.922618070052827
20
-142.99999999999994
0
LWPOLYLINE
5
438
100
AcDbEntity
8
0
100
AcDbPolyline
90
4
70
1
43
0.0
10
10.077381929947171
20
-92.999999999999957
10
10.077381929947197
20
-132.99999999999997
10
11.077381929947185
20
-133
10
11.077381929947167
20
-92.999999999999986
0
LWPOLYLINE
5
439
100
AcDbEntity
8
0
100
AcDbPolyline
90
4
70
1
43
0.0
10
-28.922618070052806
20
-117.99999999999996
10
-28.922618070052852
20
-157.99999999999997
10
-27.922618070052827
20
-157.99999999999997
10
-27.922618070052813
20
-117.99999999999997
0
LWPOLYLINE
5
440
100
AcDbEntity
8
0
100
AcDbPolyline
90
4
70
1
43
0.0
10
-16.922618070052813
20
-117.99999999999997
10
-16.922618070052813
20
-157.99999999999997
10
-15.922618070052819
20
-157.99999999999997
10
-15.922618070052827
20
-117.99999999999997
0
LWPOLYLINE
5
441
100
AcDbEntity
8
0
100
AcDbPolyline
90
4
70
1
43
0.0
10
4.0773819299472214
20
-92.999999999999972
10
4.0773819299472125
20
-132.99999999999997
10
5.0773819299471912
20
-133
10
5.0773819299471645
20
-92.999999999999986
0
LWPOLYLINE
5
442
100
AcDbEntity
8
0
100
AcDbPolyline
90
4
70
1
43
0.0
10
-25.922618070052792
20
-92.999999999999986
10
-25.922618070052799
20
-132.99999999999997
10
-24.922618070052835
20
-133
10
-24.922618070052842
20
-92.999999999999972
0
LINE
5
443
100
AcDbEntity
8
0
100
AcDbLine
10
68.922618070052891
20
-193
30
0
11
68.92261807005292
21
-197.5549170977896
31
2.0343456327113934e-16
0
LINE
5
444
100
AcDbEntity
8
0
100
AcDbLine
10
69.922618070052877
20
-197.61831205676697
30
0
11
69.922618070052877
21
-193
31
-2.1399194473641692e-16
0
LINE
5
445
100
AcDbEntity
8
0
100
AcDbLine
10
69.922618070052877
20
-193
30
-2.1399194473641692e-16
11
68.922618070052891
21
-193
31
0
0
SPLINE
5
446
100
AcDbEntity
8
0
100
AcDbSpline
70
0
71
3
72
8
73
4
74
0
42
0.000000001
43
0.0000000001
44
0.0000000001
40
2.5969617938867842
40
2.5969617938867842
40
2.5969617938867842
40
2.5969617938867842
40
2.8041061865472203
40
2.8041061865472203
40
2.8041061865472203
40
2.8041061865472203
10
71.922618070052891
20
-197.74980619999141
30
0
10
71.25755190982305
20
-197.70506315534186
30
0
10
70.591011775745841
20
-197.66121749486109
30
0
10
69.92261804597095
20
-197.61831205830018
30
0
0
SPLINE
5
447
100
AcDbEntity
8
0
100
AcDbSpline
70
0
71
3
72
8
73
4
74
0
42
0.000000001
43
0.0000000001
44
0.0000000001
40
2.9072634509171031
40
2.9072634509171031
40
2.9072634509171031
40
2.9072634509171031
40
3.1126797836730131
40
3.1126797836730131
40
3.1126797836730131
40
3.1126797836730131
10
68.922618060461247
20
-197.55491709838495
30
0
10
68.257876114742487
20
-197.51330973602137
30
0
10
67.589949654722801
20
-197.47258037701837
30
0
10
66.922618070052891
20
-197.43302068895184
30
0
0
LINE
5
448
100
AcDbEntity
8
0
100
AcDbLine
10
74.922618070052877
20
-193
30
0
11
74.922618070052877
21
-197.958211609843
31
2.7059659121913949e-16
0
LINE
5
449
100
AcDbEntity
8
0
100
AcDbLine
10
75.922618070052863
20
-198.0304918309979
30
0
11
75.922618070052849
21
-193
31
-2.8263366608181678e-16
0
LINE
5
450
100
AcDbEntity
8
0
100
AcDbLine
10
75.922618070052849
20
-193
30
-2.8263366608181678e-16
11
74.922618070052877
21
-193
31
0
0
SPLINE
5
451
100
AcDbEntity
8
0
100
AcDbSpline
70
0
71
3
72
8
73
4
74
0
42
0.000000001
43
0.0000000001
44
0.0000000001
40
1.9709273229983517
40
1.9709273229983517
40
1.9709273229983517
40
1.9709273229983517
40
2.1801381060700766
40
2.1801381060700766
40
2.1801381060700766
40
2.1801381060700766
10
77.922618070052863
20
-198.17901151515565
30
0
10
77.256415750991067
20
-198.12868972547764
30
0
10
76.589879288366888
20
-198.07917169044887
30
0
10
75.922618070052849
20
-198.03049183099787
30
0
0
SPLINE
5
452
100
AcDbEntity
8
0
100
AcDbSpline
70
0
71
3
72
8
73
4
74
0
42
0.000000001
43
0.0000000001
44
0.0000000001
40
2.2845885665746577
40
2.2845885665746577
40
2.2845885665746577
40
2.2845885665746577
40
2.4930297521015956
40
2.4930297521015956
40
2.4930297521015956
40
2.4930297521015956
10
74.922618070052849
20
-197.95821160984298
30
0
10
74.256993350830413
20
-197.91055387689562
30
0
10
73.590455544750043
20
-197.86374616541758
30
0
10
72.922618070052863
20
-197.8178267872496
30
0
0
LINE
5
453
100
AcDbEntity
8
0
100
AcDbLine
10
47.922618070052863
20
-168
30
0
11
47.922618070052856
21
-196.64652153627179
31
-2.2539944306480013e-16
0
LINE
5
454
100
AcDbEntity
8
0
100
AcDbLine
10
48.922618070052863
20
-196.6696234475933
30
0
11
48.922618070052863
21
-168
31
2.2155220198550395e-16
0
LINE
5
455
100
AcDbEntity
8
0
100
AcDbLine
10
48.922618070052863
20
-168
30
2.2155220198550395e-16
11
47.922618070052863
21
-168
31
0
0
SPLINE
5
456
100
AcDbEntity
8
0
100
AcDbSpline
70
0
71
3
72
8
73
4
74
0
42
0.000000001
43
0.0000000001
44
0.0000000001
40
4.7738303098568604
40
4.7738303098568604
40
4.7738303098568604
40
4.7738303098568604
40
4.9824324985096373
40
4.9824324985096373
40
4.9824324985096373
40
4.9824324985096373
10
50.922618070052863
20
-196.72224782178142
30
0
10
50.256188764597375
20
-196.70329648983071
30
0
10
49.589595026479614
20
-196.68574886587891
30
0
10
48.922618066664079
20
-196.66962344767512
30
0
0
SPLINE
5
457
100
AcDbEntity
8
0
100
AcDbSpline
70
0
71
3
72
8
73
4
74
0
42
0.000000001
43
0.0000000001
44
0.0000000001
40
5.0866523076308399
40
5.0866523076308399
40
5.0866523076308399
40
5.0866523076308399
40
5.2948447601726327
40
5.2948447601726327
40
5.2948447601726327
40
5.2948447601726327
10
47.922618066938298
20
-196.64652153634034
30
0
10
47.256514503549205
20
-196.63185082395373
30
0
10
46.589920336888511
20
-196.61860611549344
30
0
10
45.922618053809011
20
-196.60680654726107
30
0
0
LINE
5
458
100
AcDbEntity
8
0
100
AcDbLine
10
89.922618070052891
20
-168
30
0
11
89.922618070052849
21
-199.16148189533629
31
-3.6168592087943645e-16
0
LINE
5
459
100
AcDbEntity
8
0
100
AcDbLine
10
90.922618070052934
20
-199.24883093631337
30
0
11
90.922618070052835
21
-168
31
3.471393834086854e-16
0
LINE
5
460
100
AcDbEntity
8
0
100
AcDbLine
10
90.922618070052835
20
-168
30
3.471393834086854e-16
11
89.922618070052891
21
-168
31
0
0
SPLINE
5
461
100
AcDbEntity
8
0
100
AcDbSpline
70
0
71
3
72
8
73
4
74
0
42
0.000000001
43
0.0000000001
44
0.0000000001
40
0.41183283229434825
40
0.41183283229434825
40
0.41183283229434825
40
0.41183283229434825
40
0.61679154865735775
40
0.61679154865735775
40
0.61679154865735775
40
0.61679154865735775
10
92.92261807005282
20
-199.42528822704421
30
0
10
92.25360356010242
20
-199.3659049730837
30
0
10
91.587059243133083
20
-199.3070756967432
30
0
10
90.922618110014071
20
-199.24883093286695
30
0
0
SPLINE
5
462
100
AcDbEntity
8
0
100
AcDbSpline
70
0
71
3
72
8
73
4
74
0
42
0.000000001
43
0.0000000001
44
0.0000000001
40
0.71977316032983263
40
0.71977316032983263
40
0.71977316032983263
40
0.71977316032983263
40
0.92661152554711868
40
0.92661152554711868
40
0.92661152554711868
40
0.92661152554711868
10
89.92261810831792
20
-199.1614818920558
30
0
10
89.254122888546021
20
-199.10330303693036
30
0
10
88.58758187333386
20
-199.04573432522278
30
0
10
87.92261807005282
20
-198.9888047357276
30
0
0
LINE
5
463
100
AcDbEntity
8
0
100
AcDbLine
10
87.922618070052863
20
-83
30
0
11
87.92261807005282
21
-77.011195264080925
31
1.1288668845492476e-16
0
LINE
5
464
100
AcDbEntity
8
0
100
AcDbLine
10
86.92261807005292
20
-77.096419849639659
30
0
11
86.922618070052877
21
-82.999999999999986
31
-1.270794330276442e-16
0
LINE
5
465
100
AcDbEntity
8
0
100
AcDbLine
10
86.922618070052877
20
-82.999999999999986
30
-1.270794330276442e-16
11
87.922618070052863
21
-83
31
0
0
SPLINE
5
466
100
AcDbEntity
8
0
100
AcDbSpline
70
0
71
3
72
8
73
4
74
0
42
0.000000001
43
0.0000000001
44
0.0000000001
40
-1.2074149090214055
40
-1.2074149090214055
40
-1.2074149090214055
40
-1.2074149090214055
40
-0.99660281569512033
40
-0.99660281569512033
40
-0.99660281569512033
40
-0.99660281569512033
10
84.922618026185859
20
-77.264385526813797
30
0
10
85.589410098613257
20
-77.208972103977374
30
0
10
86.256008625365936
20
-77.152966720259727
30
0
10
86.922618070598048
20
-77.096419849685262
30
0
0
SPLINE
5
467
100
AcDbEntity
8
0
100
AcDbSpline
70
0
71
3
72
8
73
4
74
0
42
0.000000001
43
0.0000000001
44
0.0000000001
40
-0.89119123758787655
40
-0.89119123758787655
40
-0.89119123758787655
40
-0.89119123758787655
40
-0.6804371881952983
40
-0.6804371881952983
40
-0.6804371881952983
40
-0.6804371881952983
10
87.92261807117751
20
-77.011195264175697
30
0
10
88.589105329404106
20
-76.954135247032283
30
0
10
89.255704490293056
20
-76.896559316924012
30
0
10
89.922618070052891
20
-76.838518111274027
30
0
0
LWPOLYLINE
5
468
100
AcDbEntity
8
0
100
AcDbPolyline
90
4
70
1
43
0.0
10
47.922618070052863
20
-118
10
47.922618070052877
20
-158
10
48.922618070052863
20
-158
10
48.92261807005287
20
-117.99999999999999
0
LINE
5
469
100
AcDbEntity
8
0
100
AcDbLine
10
69.922618070052891
20
-82.999999999999986
30
0
11
69.922618070052891
21
-78.381687935903585
31
-2.1399194595701449e-16
0
LINE
5
470
100
AcDbEntity
8
0
100
AcDbLine
10
68.922618070052877
20
-78.445082896963214
30
0
11
68.92261807005292
21
-82.999999999999986
31
2.0343456414497339e-16
0
LINE
5
471
100
AcDbEntity
8
0
100
AcDbLine
10
68.92261807005292
20
-82.999999999999986
30
2.0343456414497339e-16
11
69.922618070052891
21
-82.999999999999986
31
0
0
SPLINE
5
472
100
AcDbEntity
8
0
100
AcDbSpline
70
0
71
3
72
8
73
4
74
0
42
0.000000001
43
0.0000000001
44
0.0000000001
40
-3.1061852586489906
40
-3.1061852586489906
40
-3.1061852586489906
40
-3.1061852586489906
40
-2.8949587917608541
40
-2.8949587917608541
40
-2.8949587917608541
40
-2.8949587917608541
10
66.922618070052863
20
-78.566979311047788
30
0
10
67.589690889865778
20
-78.527434962667343
30
0
10
68.256287842253499
20
-78.486789676779935
30
0
10
68.922618102540881
20
-78.445082898980885
30
0
0
SPLINE
5
473
100
AcDbEntity
8
0
100
AcDbSpline
70
0
71
3
72
8
73
4
74
0
42
0.000000001
43
0.0000000001
44
0.0000000001
40
-2.7892737577938296
40
-2.7892737577938296
40
-2.7892737577938296
40
-2.7892737577938296
40
-2.5778414757644437
40
-2.5778414757644437
40
-2.5778414757644437
40
-2.5778414757644437
10
69.922618103302241
20
-78.381687938019326
30
0
10
70.589381510557686
20
-78.338887154832491
30
0
10
71.255980286474482
20
-78.295042577320856
30
0
10
71.92261807388445
20
-78.250193799750477
30
0
0
LINE
5
474
100
AcDbEntity
8
0
100
AcDbLine
10
71.922618070052891
20
-168
30
0
11
71.922618070052891
21
-197.74980619999141
31
0
0
LINE
5
475
100
AcDbEntity
8
0
100
AcDbLine
10
72.922618070052849
20
-197.81782678724954
30
0
11
72.922618070052863
21
-168
31
3.0337934289818102e-17
0
LINE
5
476
100
AcDbEntity
8
0
100
AcDbLine
10
72.922618070052863
20
-168
30
3.0337934289818102e-17
11
71.922618070052891
21
-168
31
0
0
LWPOLYLINE
5
477
100
AcDbEntity
8
0
100
AcDbPolyline
90
4
70
1
43
0.0
10
50.922618070052877
20
-143
10
50.922618070052863
20
-183
10
51.922618070052884
20
-183
10
51.92261807005287
20
-143
0
LWPOLYLINE
5
478
100
AcDbEntity
8
0
100
AcDbPolyline
90
4
70
1
43
0.0
10
62.922618070052863
20
-143
10
62.922618070052856
20
-183
10
63.922618070052827
20
-183
10
63.922618070052877
20
-143
0
LWPOLYLINE
5
479
100
AcDbEntity
8
0
100
AcDbPolyline
90
4
70
1
43
0.0
10
95.922618070052877
20
-117.99999999999999
10
95.922618070052891
20
-158
10
96.92261807005292
20
-157.99999999999994
10
96.922618070052877
20
-118.00000000000013
0
LINE
5
480
100
AcDbEntity
8
0
100
AcDbLine
10
65.922618070052877
20
-168
30
0
11
65.922618070052891
21
-197.37459198885728
31
-1.0415135606335421e-16
0
LINE
5
481
100
AcDbEntity
8
0
100
AcDbLine
10
66.922618070052891
20
-197.43302068895184
30
0
11
66.922618070052863
21
-167.99999999999994
31
9.4421022841757694e-17
0
LINE
5
482
100
AcDbEntity
8
0
100
AcDbLine
10
66.922618070052863
20
-167.99999999999994
30
9.4421022841757694e-17
11
65.922618070052877
21
-168
31
0
0
SPLINE
5
483
100
AcDbEntity
8
0
100
AcDbSpline
70
0
71
3
72
8
73
4
74
0
42
0.000000001
43
0.0000000001
44
0.0000000001
40
3.2154006749211779
40
3.2154006749211779
40
3.2154006749211779
40
3.2154006749211779
40
3.4214885646910127
40
3.4214885646910127
40
3.4214885646910127
40
3.4214885646910127
10
65.922618070052877
20
-197.37459198885722
30
0
10
65.254587232724532
20
-197.33613266167731
30
0
10
64.587990886271967
20
-197.29891174954452
30
0
10
63.922618070052899
20
-197.26294779704278
30
0
0
LWPOLYLINE
5
484
100
AcDbEntity
8
0
100
AcDbPolyline
90
4
70
1
43
0.0
10
56.92261807005287
20
-143
10
56.922618070052884
20
-183
10
57.922618070052856
20
-183
10
57.922618070052856
20
-142.99999999999997
0
LINE
5
485
100
AcDbEntity
8
0
100
AcDbLine
10
44.922618070052849
20
-193
30
0
11
44.922618070052849
21
-196.59021693869704
31
4.2779713998525234e-17
0
LINE
5
486
100
AcDbEntity
8
0
100
AcDbLine
10
45.922618053809011
20
-196.60680654726107
30
0
11
45.922618070052856
21
-193
31
-4.5542438760322345e-17
0
LINE
5
487
100
AcDbEntity
8
0
100
AcDbLine
10
45.922618070052856
20
-193
30
-4.5542438760322345e-17
11
44.922618070052849
21
-193
31
0
0
SPLINE
5
488
100
AcDbEntity
8
0
100
AcDbSpline
70
0
71
3
72
8
73
4
74
0
42
0.000000001
43
0.0000000001
44
0.0000000001
40
5.3987839525503309
40
5.3987839525503309
40
5.3987839525503309
40
5.3987839525503309
40
5.6062659427565231
40
5.6062659427565231
40
5.6062659427565231
40
5.6062659427565231
10
44.922618060929345
20
-196.5902169388383
30
0
10
44.256834300967149
20
-196.57990055932257
30
0
10
43.590239397151521
20
-196.57102916194586
30
0
10
42.922618070052863
20
-196.56362248543695
30
0
0
LWPOLYLINE
5
489
100
AcDbEntity
8
0
100
AcDbPolyline
90
4
70
1
43
0.0
10
80.922618070052863
20
-143
10
80.922618070052835
20
-183
10
81.922618070052835
20
-183
10
81.922618070052835
20
-143
0
LINE
5
490
100
AcDbEntity
8
0
100
AcDbLine
10
63.92261807005287
20
-82.999999999999972
30
0
11
63.922618070052863
21
-78.737052201817633
31
-1.5481190743499322e-16
0
LINE
5
491
100
AcDbEntity
8
0
100
AcDbLine
10
62.922618070052849
20
-78.790201169069022
30
0
11
62.922618070052849
21
-82.999999999999986
31
1.4596082635836519e-16
0
LINE
5
492
100
AcDbEntity
8
0
100
AcDbLine
10
62.922618070052849
20
-82.999999999999986
30
1.4596082635836519e-16
11
63.92261807005287
21
-82.999999999999972
31
0
0
SPLINE
5
493
100
AcDbEntity
8
0
100
AcDbSpline
70
0
71
3
72
8
73
4
74
0
42
0.000000001
43
0.0000000001
44
0.0000000001
40
-3.7390082360145653
40
-3.7390082360145653
40
-3.7390082360145653
40
-3.7390082360145653
40
-3.5278903734164104
40
-3.5278903734164104
40
-3.5278903734164104
40
-3.5278903734164104
10
60.922618070052891
20
-78.890994636878062
30
0
10
61.588859078923448
20
-78.85866086118584
30
0
10
62.255456115157983
20
-78.825054929185086
30
0
10
62.9226180685435
20
-78.790201168990592
30
0
0
SPLINE
5
494
100
AcDbEntity
8
0
100
AcDbSpline
70
0
71
3
72
8
73
4
74
0
42
0.000000001
43
0.0000000001
44
0.0000000001
40
-3.4224572362963359
40
-3.4224572362963359
40
-3.4224572362963359
40
-3.4224572362963359
40
-3.2116937403698276
40
-3.2116937403698276
40
-3.2116937403698276
40
-3.2116937403698276
10
63.922618080624545
20
-78.737052202385485
30
0
10
64.58927723756166
20
-78.701018722088548
30
0
10
65.256479204523515
20
-78.66375841526326
30
0
10
65.922618070052849
20
-78.625408011142468
30
0
0
LINE
5
495
100
AcDbEntity
8
0
100
AcDbLine
10
83.922618070052906
20
-168
30
0
11
83.922618070052863
21
-198.65297413280175
31
-4.4636947480440814e-16
0
LINE
5
496
100
AcDbEntity
8
0
100
AcDbLine
10
84.922618070052849
20
-198.73561447575594
30
0
11
84.922618070052891
21
-168
31
4.3260709307780972e-16
0
LINE
5
497
100
AcDbEntity
8
0
100
AcDbLine
10
84.922618070052891
20
-168
30
4.3260709307780972e-16
11
83.922618070052906
21
-168
31
0
0
SPLINE
5
498
100
AcDbEntity
8
0
100
AcDbSpline
70
0
71
3
72
8
73
4
74
0
42
0.000000001
43
0.0000000001
44
0.0000000001
40
1.0304141681816663
40
1.0304141681816663
40
1.0304141681816663
40
1.0304141681816663
40
1.2386459304734847
40
1.2386459304734847
40
1.2386459304734847
40
1.2386459304734847
10
86.922618070052877
20
-198.90358015026808
30
0
10
86.254672794001522
20
-198.84691996438914
30
0
10
85.588134329002088
20
-198.7909218738472
30
0
10
84.92261806353801
20
-198.73561447628992
30
0
0
SPLINE
5
499
100
AcDbEntity
8
0
100
AcDbSpline
70
0
71
3
72
8
73
4
74
0
42
0.000000001
43
0.0000000001
44
0.0000000001
40
1.3430170842688567
40
1.3430170842688567
40
1.3430170842688567
40
1.3430170842688567
40
1.5521214552050506
40
1.5521214552050506
40
1.5521214552050506
40
1.5521214552050506
10
83.922618062141083
20
-198.65297413344257
30
0
10
83.255244870192641
20
-198.59813746529457
30
0
10
82.588708058626352
20
-198.54401169960724
30
0
10
81.922618070052835
20
-198.49062625447334
30
0
0
LINE
5
500
100
AcDbEntity
8
0
100
AcDbLine
10
81.922618070052806
20
-82.999999999999986
30
0
11
81.922618070052877
21
-77.509373745625098
31
1.95850071542398e-16
0
LINE
5
501
100
AcDbEntity
8
0
100
AcDbLine
10
80.922618070052863
20
-77.588983907117196
30
0
11
80.922618070052835
21
-82.999999999999986
31
-2.0910782668479623e-16
0
LINE
5
502
100
AcDbEntity
8
0
100
AcDbLine
10
80.922618070052835
20
-82.999999999999986
30
-2.0910782668479623e-16
11
81.922618070052806
21
-82.999999999999986
31
0
0
SPLINE
5
503
100
AcDbEntity
8
0
100
AcDbSpline
70
0
71
3
72
8
73
4
74
0
42
0.000000001
43
0.0000000001
44
0.0000000001
40
-1.8388699201010568
40
-1.8388699201010568
40
-1.8388699201010568
40
-1.8388699201010568
40
-1.6285393186687778
40
-1.6285393186687778
40
-1.6285393186687778
40
-1.6285393186687778
10
78.922618070052863
20
-77.744837998176379
30
0
10
79.588550494194081
20
-77.693722310751525
30
0
10
80.255737915472366
20
-77.641710700983907
30
0
10
80.922618074937674
20
-77.58898390749863
30
0
0
SPLINE
5
504
100
AcDbEntity
8
0
100
AcDbSpline
70
0
71
3
72
8
73
4
74
0
42
0.000000001
43
0.0000000001
44
0.0000000001
40
-1.5233619268377543
40
-1.5233619268377543
40
-1.5233619268377543
40
-1.5233619268377543
40
-1.3127830951368087
40
-1.3127830951368087
40
-1.3127830951368087
40
-1.3127830951368087
10
81.922618069432573
20
-77.509373745575971
30
0
10
82.58972247504235
20
-77.455906997456509
30
0
10
83.256318466214339
20
-77.401774319533146
30
0
10
83.922618033909728
20
-77.347025868876713
30
0
0
LINE
5
505
100
AcDbEntity
8
0
100
AcDbLine
10
96.922618070052835
20
-199.78189241033925
30
0
11
96.922618070052891
21
-168
31
2.5836681510806337e-16
0
LINE
5
506
100
AcDbEntity
8
0
100
AcDbLine
10
96.922618070052891
20
-168
30
2.5836681510806337e-16
11
95.922618070052835
21
-167.99999999999997
31
0
0
LINE
5
507
100
AcDbEntity
8
0
100
AcDbLine
10
95.922618070052835
20
-167.99999999999997
30
0
11
95.922618070052891
21
-199.69357736416487
31
-2.7307422476060551e-16
0
LINE
5
508
100
AcDbEntity
8
0
100
AcDbLine
10
96.937816850459342
20
-199.78320899464617
30
-2.8632445377251613e-17
11
96.922618070052835
21
-199.78189241033925
31
0
0
LINE
5
509
100
AcDbEntity
8
0
100
AcDbLine
10
59.922618070052835
20
-168
30
0
11
59.92261806711879
21
-197.06142082403844
31
0
0
LINE
5
510
100
AcDbEntity
8
0
100
AcDbLine
10
60.92261807005287
20
-197.10900536291672
30
0
11
60.922618070052877
21
-168
31
1.483804141361115e-16
0
LINE
5
511
100
AcDbEntity
8
0
100
AcDbLine
10
60.922618070052877
20
-168
30
1.483804141361115e-16
11
59.922618070052835
21
-168
31
0
0
SPLINE
5
512
100
AcDbEntity
8
0
100
AcDbSpline
70
0
71
3
72
8
73
4
74
0
42
0.000000001
43
0.0000000001
44
0.0000000001
40
3.5248254198677205
40
3.5248254198677205
40
3.5248254198677205
40
3.5248254198677205
40
3.7320073820247837
40
3.7320073820247837
40
3.7320073820247837
40
3.7320073820247837
10
62.922618070052849
20
-197.20979883108794
30
0
10
62.254893158488812
20
-197.17491566092713
30
0
10
61.588297917590758
20
-197.1413119047256
30
0
10
60.922618067936376
20
-197.10900536301892
30
0
0
LINE
5
513
100
AcDbEntity
8
0
100
AcDbLine
10
92.92261807005292
20
-192.99999999999997
30
0
11
92.92261807005282
21
-199.42528822704421
31
0
0
LINE
5
514
100
AcDbEntity
8
0
100
AcDbLine
10
93.922618070052863
20
-199.51429078604286
30
0
11
93.922618070052849
21
-193
31
2.5375681659915613e-17
0
LINE
5
515
100
AcDbEntity
8
0
100
AcDbLine
10
93.922618070052849
20
-193
30
2.5375681659915613e-17
11
92.92261807005292
21
-192.99999999999997
31
0
0
SPLINE
5
516
100
AcDbEntity
8
0
100
AcDbSpline
70
0
71
3
72
8
73
4
74
0
42
0.000000001
43
0.0000000001
44
0.0000000001
40
0.1072677836843543
40
0.1072677836843543
40
0.1072677836843543
40
0.1072677836843543
40
0.30990488927511545
40
0.30990488927511545
40
0.30990488927511545
40
0.30990488927511545
10
95.922618072083367
20
-199.69357736398493
30
0
10
95.253121698371856
20
-199.63331139587672
30
0
10
94.586573371743228
20
-199.57353814455331
30
0
10
93.922618070052849
20
-199.51429078604278
30
0
0
LINE
5
517
100
AcDbEntity
8
0
100
AcDbLine
10
86.922618070052835
20
-193
30
0
11
86.922618070052877
21
-198.90358015026808
31
0
0
LINE
5
518
100
AcDbEntity
8
0
100
AcDbLine
10
87.92261807005282
20
-198.9888047357276
30
0
11
87.92261807005282
21
-193
31
1.1288668848680854e-16
0
LINE
5
519
100
AcDbEntity
8
0
100
AcDbLine
10
87.92261807005282
20
-193
30
1.1288668848680854e-16
11
86.922618070052835
21
-193
31
0
0
LINE
5
520
100
AcDbEntity
8
0
100
AcDbLine
10
80.922618070052835
20
-193
30
0
11
80.922618070052792
21
-198.41101609211481
31
-2.0910782681269227e-16
0
LINE
5
521
100
AcDbEntity
8
0
100
AcDbLine
10
81.922618070052835
20
-198.4906262544734
30
0
11
81.922618070052835
21
-193
31
1.958500715260035e-16
0
LINE
5
522
100
AcDbEntity
8
0
100
AcDbLine
10
81.922618070052835
20
-193
30
1.958500715260035e-16
11
80.922618070052835
21
-193
31
0
0
SPLINE
5
523
100
AcDbEntity
8
0
100
AcDbSpline
70
0
71
3
72
8
73
4
74
0
42
0.000000001
43
0.0000000001
44
0.0000000001
40
1.6567941920765641
40
1.6567941920765641
40
1.6567941920765641
40
1.6567941920765641
40
1.8662278622894219
40
1.8662278622894219
40
1.8662278622894219
40
1.8662278622894219
10
80.922618070052806
20
-198.41101609211478
30
0
10
80.255829364285091
20
-198.35829652940788
30
0
10
79.589293232062332
20
-198.30633470037554
30
0
10
78.922618073000322
20
-198.25516200204953
30
0
0
LINE
5
524
100
AcDbEntity
8
0
100
AcDbLine
10
93.922618070052863
20
-83
30
0
11
93.922618070052835
21
-76.485709210511459
31
2.5375681086090302e-17
0
LINE
5
525
100
AcDbEntity
8
0
100
AcDbLine
10
92.92261807005282
20
-76.574711769657284
30
0
11
92.922618070052863
21
-83
31
-4.0197584648228959e-17
0
LINE
5
526
100
AcDbEntity
8
0
100
AcDbLine
10
92.922618070052863
20
-83
30
-4.0197584648228959e-17
11
93.922618070052863
21
-83
31
0
0
SPLINE
5
527
100
AcDbEntity
8
0
100
AcDbSpline
70
0
71
3
72
8
73
4
74
0
42
0.000000001
43
0.0000000001
44
0.0000000001
40
-0.57512667131397144
40
-0.57512667131397144
40
-0.57512667131397144
40
-0.57512667131397144
40
-0.36471864753633432
40
-0.36471864753633432
40
-0.36471864753633432
40
-0.36471864753633432
10
90.922618070052891
20
-76.751169070635626
30
0
10
91.588801289554198
20
-76.692771595865594
30
0
10
92.255399208137476
20
-76.633935641106575
30
0
10
92.922618088776431
20
-76.574711771293437
30
0
0
SPLINE
5
528
100
AcDbEntity
8
0
100
AcDbSpline
70
0
71
3
72
8
73
4
74
0
42
0.000000001
43
0.0000000001
44
0.0000000001
40
-0.25965331837560585
40
-0.25965331837560585
40
-0.25965331837560585
40
-0.25965331837560585
40
-0.049881256620607446
40
-0.049881256620607446
40
-0.049881256620607446
40
-0.049881256620607446
10
93.922618089520441
20
-76.485709212219589
30
0
10
94.588491318637693
20
-76.42629070945074
30
0
10
95.255086190827996
20
-76.366511766660935
30
0
10
95.922618073604895
20
-76.306422635877624
30
0
0
LWPOLYLINE
5
529
100
AcDbEntity
8
0
100
AcDbPolyline
90
4
70
1
43
0.0
10
71.92261807005292
20
-117.99999999999999
10
71.922618070052835
20
-158
10
72.922618070052906
20
-158
10
72.922618070052877
20
-117.99999999999997
0
LINE
5
530
100
AcDbEntity
8
0
100
AcDbLine
10
51.92261807005287
20
-82.999999999999986
30
0
11
51.922618070052863
21
-79.248260843749819
31
-6.9678566735927512e-17
0
LINE
5
531
100
AcDbEntity
8
0
100
AcDbLine
10
50.922618070052863
20
-79.277752178218407
30
0
11
50.92261807005287
21
-83
31
6.4767272952836495e-17
0
LINE
5
532
100
AcDbEntity
8
0
100
AcDbLine
10
50.92261807005287
20
-83
30
6.4767272952836495e-17
11
51.92261807005287
21
-82.999999999999986
31
0
0
SPLINE
5
533
100
AcDbEntity
8
0
100
AcDbSpline
70
0
71
3
72
8
73
4
74
0
42
0.000000001
43
0.0000000001
44
0.0000000001
40
-5.0064909654075089
40
-5.0064909654075089
40
-5.0064909654075089
40
-5.0064909654075089
40
-4.7954149582504648
40
-4.7954149582504648
40
-4.7954149582504648
40
-4.7954149582504648
10
48.922618070052891
20
-79.330376552242754
30
0
10
49.588759095173188
20
-79.31427134432225
30
0
10
50.255355272365058
20
-79.296727212289994
30
0
10
50.922618070052856
20
-79.277752178218392
30
0
0
SPLINE
5
534
100
AcDbEntity
8
0
100
AcDbSpline
70
0
71
3
72
8
73
4
74
0
42
0.000000001
43
0.0000000001
44
0.0000000001
40
-4.6899731516532279
40
-4.6899731516532279
40
-4.6899731516532279
40
-4.6899731516532279
40
-4.4788549626564516
40
-4.4788549626564516
40
-4.4788549626564516
40
-4.4788549626564516
10
51.92261807005287
20
-79.24826084374979
30
0
10
52.589781063950376
20
-79.227883926630113
30
0
10
53.256377645254609
20
-79.20612447409178
30
0
10
53.92261807005287
20
-79.183007143722634
30
0
0
LINE
5
535
100
AcDbEntity
8
0
100
AcDbLine
10
48.922618070052849
20
-108
30
0
11
48.922618070052891
21
-79.330376552242754
31
0
0
LINE
5
536
100
AcDbEntity
8
0
100
AcDbLine
10
47.922618070052884
20
-79.353478463590861
30
0
11
47.922618070052863
21
-108
31
3.2971206927065117e-16
0
LINE
5
537
100
AcDbEntity
8
0
100
AcDbLine
10
47.922618070052863
20
-108
30
3.2971206927065117e-16
11
48.922618070052849
21
-108
31
0
0
SPLINE
5
538
100
AcDbEntity
8
0
100
AcDbSpline
70
0
71
3
72
8
73
4
74
0
42
0.000000001
43
0.0000000001
44
0.0000000001
40
-5.3236071499720632
40
-5.3236071499720632
40
-5.3236071499720632
40
-5.3236071499720632
40
-5.1121456917101762
40
-5.1121456917101762
40
-5.1121456917101762
40
-5.1121456917101762
10
45.922618070052877
20
-79.393193452451456
30
0
10
46.589067105719423
20
-79.381408971737258
30
0
10
47.255665828727629
20
-79.368167867834956
30
0
10
47.922618070052856
20
-79.353478463590847
30
0
0
LWPOLYLINE
5
539
100
AcDbEntity
8
0
100
AcDbPolyline
90
4
70
1
43
0.0
10
41.92261807005287
20
-118
10
41.92261807005287
20
-158
10
42.922618070052863
20
-158
10
42.922618070052877
20
-117.99999999999997
0
LINE
5
540
100
AcDbEntity
8
0
100
AcDbLine
10
72.922618070052906
20
-108
30
0
11
72.922618070052849
21
-78.182173212189639
31
3.0337934196426832e-17
0
LINE
5
541
100
AcDbEntity
8
0
100
AcDbLine
10
71.92261807388445
20
-78.250193799750477
30
0
11
71.922618070052891
21
-108
31
-4.1665637522672396e-17
0
LINE
5
542
100
AcDbEntity
8
0
100
AcDbLine
10
71.922618070052891
20
-108
30
-4.1665637522672396e-17
11
72.922618070052906
21
-108
31
0
0
SPLINE
5
543
100
AcDbEntity
8
0
100
AcDbSpline
70
0
71
3
72
8
73
4
74
0
42
0.000000001
43
0.0000000001
44
0.0000000001
40
-2.4721265199357636
40
-2.4721265199357636
40
-2.4721265199357636
40
-2.4721265199357636
40
-2.2607794787542947
40
-2.2607794787542947
40
-2.2607794787542947
40
-2.2607794787542947
10
72.922618074148957
20
-78.182173212468427
30
0
10
73.58907668797255
20
-78.136348642444091
30
0
10
74.255675383915815
20
-78.089540487561194
30
0
10
74.922618070052778
20
-78.041788390156711
30
0
0
LWPOLYLINE
5
544
100
AcDbEntity
8
0
100
AcDbPolyline
90
4
70
1
43
0.0
10
80.922618070052835
20
-92.999999999999986
10
80.922618070052835
20
-133
10
81.92261807005292
20
-133
10
81.92261807005282
20
-92.999999999999972
0
LWPOLYLINE
5
545
100
AcDbEntity
8
0
100
AcDbPolyline
90
4
70
1
43
0.0
10
38.922618070052863
20
-143
10
38.922618070052792
20
-183
10
39.922618070052856
20
-183
10
39.922618070052856
20
-142.99999999999997
0
LWPOLYLINE
5
546
100
AcDbEntity
8
0
100
AcDbPolyline
90
4
70
1
43
0.0
10
86.922618070052835
20
-92.999999999999986
10
86.922618070052806
20
-133
10
87.922618070052863
20
-133
10
87.92261807005282
20
-92.999999999999986
0
LWPOLYLINE
5
547
100
AcDbEntity
8
0
100
AcDbPolyline
90
4
70
1
43
0.0
10
83.922618070052863
20
-118
10
83.922618070052906
20
-158
10
84.922618070052891
20
-158
10
84.922618070052891
20
-117.99999999999999
0
LINE
5
548
100
AcDbEntity
8
0
100
AcDbLine
10
84.922618070052849
20
-108
30
0
11
84.922618026185859
21
-77.264385526813797
31
0
0
LINE
5
549
100
AcDbEntity
8
0
100
AcDbLine
10
83.922618033909743
20
-77.347025868876713
30
0
11
83.922618070052863
21
-108
31
1.0874203674110447e-16
0
LINE
5
550
100
AcDbEntity
8
0
100
AcDbLine
10
83.922618070052863
20
-108
30
1.0874203674110447e-16
11
84.922618070052849
21
-108
31
0
0
LINE
5
551
100
AcDbEntity
8
0
100
AcDbLine
10
53.922618070052863
20
-168
30
0
11
53.92261807005287
21
-196.8169928560965
31
-1.9701026541865832e-16
0
LINE
5
552
100
AcDbEntity
8
0
100
AcDbLine
10
54.922618067164741
20
-196.85271657637736
30
0
11
54.922618070052856
21
-168
31
1.9106107091912333e-16
0
LINE
5
553
100
AcDbEntity
8
0
100
AcDbLine
10
54.922618070052856
20
-168
30
1.9106107091912333e-16
11
53.922618070052863
21
-168
31
0
0
SPLINE
5
554
100
AcDbEntity
8
0
100
AcDbSpline
70
0
71
3
72
8
73
4
74
0
42
0.000000001
43
0.0000000001
44
0.0000000001
40
4.4607768119109412
40
4.4607768119109412
40
4.4607768119109412
40
4.4607768119109412
40
4.6694820447991834
40
4.6694820447991834
40
4.6694820447991834
40
4.6694820447991834
10
53.922618067446876
20
-196.81699285618666
30
0
10
53.255860393782484
20
-196.79385757822672
30
0
10
52.589266756303239
20
-196.77210036505787
30
0
10
51.922618070052863
20
-196.75173915624995
30
0
0
LWPOLYLINE
5
555
100
AcDbEntity
8
0
100
AcDbPolyline
90
4
70
1
43
0.0
10
44.922618070052856
20
-92.999999999999986
10
44.922618070052856
20
-133
10
45.92261807005287
20
-133
10
45.922618070052856
20
-92.999999999999972
0
LWPOLYLINE
5
556
100
AcDbEntity
8
0
100
AcDbPolyline
90
4
70
1
43
0.0
10
53.92261807005287
20
-118
10
53.922618070052849
20
-158
10
54.922618070052856
20
-158
10
54.922618070052856
20
-117.99999999999999
0
LINE
5
557
100
AcDbEntity
8
0
100
AcDbLine
10
95.922618073604895
20
-76.306422635877624
30
0
11
95.92261807005292
21
-107.99999999999999
31
2.8203728759729282e-16
0
LINE
5
558
100
AcDbEntity
8
0
100
AcDbLine
10
95.92261807005292
20
-107.99999999999999
30
2.8203728759729282e-16
11
96.92261807005292
21
-107.99999999999999
31
0
0
LINE
5
559
100
AcDbEntity
8
0
100
AcDbLine
10
96.92261807005292
20
-107.99999999999999
30
0
11
96.922618070052877
21
-76.218107589660548
31
-2.9674469720453857e-16
0
LWPOLYLINE
5
560
100
AcDbEntity
8
0
100
AcDbPolyline
90
4
70
1
43
0.0
10
62.922618070052863
20
-92.999999999999986
10
62.922618070052835
20
-133
10
63.922618070052842
20
-133
10
63.922618070052899
20
-92.999999999999972
0
LWPOLYLINE
5
561
100
AcDbEntity
8
0
100
AcDbPolyline
90
4
70
1
43
0.0
10
56.922618070052891
20
-93
10
56.922618070052884
20
-133
10
57.922618070052863
20
-133
10
57.922618070052884
20
-92.999999999999986
0
LWPOLYLINE
5
562
100
AcDbEntity
8
0
100
AcDbPolyline
90
4
70
1
43
0.0
10
44.922618070052863
20
-143
10
44.922618070052863
20
-183
10
45.922618070052849
20
-183
10
45.922618070052863
20
-143
0
LWPOLYLINE
5
563
100
AcDbEntity
8
0
100
AcDbPolyline
90
4
70
1
43
0.0
10
74.922618070052863
20
-93
10
74.922618070052863
20
-133
10
75.922618070052877
20
-133
10
75.922618070052849
20
-92.999999999999986
0
LWPOLYLINE
5
564
100
AcDbEntity
8
0
100
AcDbPolyline
90
4
70
1
43
0.0
10
77.922618070052835
20
-117.99999999999999
10
77.922618070052877
20
-158
10
78.922618070052849
20
-158
10
78.922618070052863
20
-117.99999999999999
0
LWPOLYLINE
5
565
100
AcDbEntity
8
0
100
AcDbPolyline
90
4
70
1
43
0.0
10
86.922618070052806
20
-143
10
86.922618070052806
20
-183
10
87.92261807005292
20
-183
10
87.922618070052877
20
-143
0
LWPOLYLINE
5
566
100
AcDbEntity
8
0
100
AcDbPolyline
90
4
70
1
43
0.0
10
74.922618070052891
20
-143
10
74.922618070052891
20
-183
10
75.922618070052849
20
-183
10
75.922618070052849
20
-142.99999999999997
0
LWPOLYLINE
5
567
100
AcDbEntity
8
0
100
AcDbPolyline
90
4
70
1
43
0.0
10
92.922618070052891
20
-143
10
92.922618070052863
20
-183
10
93.922618070052778
20
-183
10
93.922618070052835
20
-142.99999999999997
0
LINE
5
568
100
AcDbEntity
8
0
100
AcDbLine
10
50.922618070052856
20
-193
30
0
11
50.922618070052863
21
-196.72224782178142
31
0
0
LINE
5
569
100
AcDbEntity
8
0
100
AcDbLine
10
51.92261807005287
20
-196.75173915624995
30
0
11
51.922618070052849
21
-193
31
-6.9678566735894972e-17
0
LINE
5
570
100
AcDbEntity
8
0
100
AcDbLine
10
51.922618070052849
20
-193
30
-6.9678566735894972e-17
11
50.922618070052856
21
-193
31
0
0
LINE
5
571
100
AcDbEntity
8
0
100
AcDbLine
10
39.922618070052856
20
-196.54030071689772
30
0
11
39.922618070052849
21
-193
31
-3.4466993186938592e-17
0
LINE
5
572
100
AcDbEntity
8
0
100
AcDbLine
10
39.922618070052849
20
-193
30
-3.4466993186938592e-17
11
38.922618070052863
21
-192.99999999999997
31
0
0
LINE
5
573
100
AcDbEntity
8
0
100
AcDbLine
10
38.922618070052863
20
-192.99999999999997
30
0
11
38.922618070052863
21
-196.53696509951209
31
3.3911501303512102e-17
0
SPLINE
5
574
100
AcDbEntity
8
0
100
AcDbSpline
70
0
71
3
72
8
73
4
74
0
42
0.000000001
43
0.0000000001
44
0.0000000001
40
5.7097764318934621
40
5.7097764318934621
40
5.7097764318934621
40
5.7097764318934621
40
5.916257470085986
40
5.916257470085986
40
5.916257470085986
40
5.916257470085986
10
41.92261807005287
20
-196.55363334458372
30
0
10
41.257145018812594
20
-196.5477218338425
30
0
10
40.590549064513191
20
-196.54327089488601
30
0
10
39.922618069828545
20
-196.54030071689874
30
0
0
LWPOLYLINE
5
575
100
AcDbEntity
8
0
100
AcDbPolyline
90
4
70
1
43
0.0
10
59.922618070052863
20
-117.99999999999999
10
59.922618070052856
20
-158
10
60.92261807005287
20
-158
10
60.922618070052877
20
-117.99999999999997
0
LINE
5
576
100
AcDbEntity
8
0
100
AcDbLine
10
77.922618070052863
20
-168
30
0
11
77.922618070052863
21
-198.17901151515565
31
0
0
LINE
5
577
100
AcDbEntity
8
0
100
AcDbLine
10
78.922618073000322
20
-198.25516200204953
30
0
11
78.92261807005282
21
-168
31
-4.2493009489931094e-17
0
LINE
5
578
100
AcDbEntity
8
0
100
AcDbLine
10
78.92261807005282
20
-168
30
-4.2493009489931094e-17
11
77.922618070052863
21
-168
31
0
0
LINE
5
579
100
AcDbEntity
8
0
100
AcDbLine
10
62.922618070052863
20
-193
30
0
11
62.922618070052849
21
-197.20979883108794
31
0
0
LINE
5
580
100
AcDbEntity
8
0
100
AcDbLine
10
63.922618070052899
20
-197.26294779704278
30
0
11
63.922618070052835
21
-193
31
-1.5481190724521991e-16
0
LINE
5
581
100
AcDbEntity
8
0
100
AcDbLine
10
63.922618070052835
20
-193
30
-1.5481190724521991e-16
11
62.922618070052863
21
-193
31
0
0
LWPOLYLINE
5
582
100
AcDbEntity
8
0
100
AcDbPolyline
90
4
70
1
43
0.0
10
50.922618070052863
20
-93
10
50.922618070052863
20
-133
10
51.922618070052849
20
-133
10
51.92261807005287
20
-92.999999999999972
0
LINE
5
583
100
AcDbEntity
8
0
100
AcDbLine
10
66.922618070052863
20
-108
30
0
11
66.922618070052863
21
-78.566979311047788
31
0
0
LINE
5
584
100
AcDbEntity
8
0
100
AcDbLine
10
65.922618070052849
20
-78.625408011142468
30
0
11
65.922618070052863
21
-108
31
4.5096015624926844e-16
0
LINE
5
585
100
AcDbEntity
8
0
100
AcDbLine
10
65.922618070052863
20
-108
30
4.5096015624926844e-16
11
66.922618070052863
21
-108
31
0
0
LINE
5
586
100
AcDbEntity
8
0
100
AcDbLine
10
39.922618070052856
20
-83
30
0
11
39.922618060720126
21
-79.459699283141617
31
0
0
LINE
5
587
100
AcDbEntity
8
0
100
AcDbLine
10
38.92261807005287
20
-79.463034900494904
30
0
11
38.922618070052863
21
-83
31
3.391150130234656e-17
0
LINE
5
588
100
AcDbEntity
8
0
100
AcDbLine
10
38.922618070052863
20
-83
30
3.391150130234656e-17
11
39.922618070052856
21
-83
31
0
0
SPLINE
5
589
100
AcDbEntity
8
0
100
AcDbSpline
70
0
71
3
72
8
73
4
74
0
42
0.000000001
43
0.0000000001
44
0.0000000001
40
-6.1691206565774621
40
-6.1691206565774621
40
-6.1691206565774621
40
-6.1691206565774621
40
-6.0636299630726116
40
-6.0636299630726116
40
-6.0636299630726116
40
-6.0636299630726116
10
37.922618070053048
20
-79.464146991715253
30
0
10
38.256110053517432
20
-79.464146991715253
30
0
10
38.589434482466501
20
-79.463775925129809
30
0
10
38.922618068373396
20
-79.463034900491152
30
0
0
LWPOLYLINE
5
590
100
AcDbEntity
8
0
100
AcDbPolyline
90
4
70
1
43
0.0
10
89.922618070052849
20
-118
10
89.922618070052891
20
-158
10
90.922618070052835
20
-158
10
90.922618070052849
20
-117.99999999999999
0
LINE
5
591
100
AcDbEntity
8
0
100
AcDbLine
10
54.922618070052849
20
-108
30
0
11
54.922618070052891
21
-79.147283423516285
31
0
0
LINE
5
592
100
AcDbEntity
8
0
100
AcDbLine
10
53.92261807005287
20
-79.183007143722634
30
0
11
53.922618070052877
21
-107.99999999999999
31
3.5810124692403768e-16
0
LINE
5
593
100
AcDbEntity
8
0
100
AcDbLine
10
53.922618070052877
20
-107.99999999999999
30
3.5810124692403768e-16
11
54.922618070052849
21
-108
31
0
0
LINE
5
594
100
AcDbEntity
8
0
100
AcDbLine
10
89.922618070052891
20
-76.838518111274027
30
0
11
89.922618070052891
21
-108.00000000000003
31
1.9342559033230517e-16
0
LINE
5
595
100
AcDbEntity
8
0
100
AcDbLine
10
89.922618070052891
20
-108.00000000000003
30
1.9342559033230517e-16
11
90.922618070052934
21
-107.99999999999999
31
0
0
LINE
5
596
100
AcDbEntity
8
0
100
AcDbLine
10
90.922618070052934
20
-107.99999999999999
30
0
11
90.922618070052891
21
-76.751169070635626
31
0
0
LINE
5
597
100
AcDbEntity
8
0
100
AcDbLine
10
77.922618070052849
20
-77.820988484844037
30
0
11
77.922618070052863
21
-107.99999999999999
31
2.9811405869875469e-17
0
LINE
5
598
100
AcDbEntity
8
0
100
AcDbLine
10
77.922618070052863
20
-107.99999999999999
30
2.9811405869875469e-17
11
78.922618070052849
21
-107.99999999999997
31
0
0
LINE
5
599
100
AcDbEntity
8
0
100
AcDbLine
10
78.922618070052849
20
-107.99999999999997
30
0
11
78.922618070052863
21
-77.744837998176379
31
0
0
SPLINE
5
600
100
AcDbEntity
8
0
100
AcDbSpline
70
0
71
3
72
8
73
4
74
0
42
0.000000001
43
0.0000000001
44
0.0000000001
40
-2.1551796393970553
40
-2.1551796393970553
40
-2.1551796393970553
40
-2.1551796393970553
40
-1.9442084621529436
40
-1.9442084621529436
40
-1.9442084621529436
40
-1.9442084621529436
10
75.922618070052806
20
-77.96950816900177
30
0
10
76.588769423367779
20
-77.920909279447841
30
0
10
77.255366105895035
20
-77.871389559775508
30
0
10
77.922618070052849
20
-77.820988484844023
30
0
0
LWPOLYLINE
5
601
100
AcDbEntity
8
0
100
AcDbPolyline
90
4
70
1
43
0.0
10
38.922618070052934
20
-93
10
38.922618070052849
20
-133
10
39.922618070052856
20
-133
10
39.922618070052856
20
-92.999999999999986
0
LWPOLYLINE
5
602
100
AcDbEntity
8
0
100
AcDbPolyline
90
4
70
1
43
0.0
10
92.922618070052863
20
-93
10
92.922618070052891
20
-133
10
93.922618070052849
20
-133
10
93.922618070052891
20
-92.999999999999986
0
LINE
5
603
100
AcDbEntity
8
0
100
AcDbLine
10
60.922618070052863
20
-107.99999999999999
30
0
11
60.922618070052891
21
-78.890994636878062
31
0
0
LINE
5
604
100
AcDbEntity
8
0
100
AcDbLine
10
59.922618070052877
20
-78.938579175824486
30
0
11
59.922618070052877
21
-107.99999999999999
31
3.9880668059746754e-16
0
LINE
5
605
100
AcDbEntity
8
0
100
AcDbLine
10
59.922618070052877
20
-107.99999999999999
30
3.9880668059746754e-16
11
60.922618070052863
21
-107.99999999999999
31
0
0
LWPOLYLINE
5
606
100
AcDbEntity
8
0
100
AcDbPolyline
90
4
70
1
43
0.0
10
68.922618070052891
20
-92.999999999999972
10
68.92261807005292
20
-133
10
69.922618070052863
20
-133
10
69.922618070052891
20
-92.999999999999972
0
LINE
5
607
100
AcDbEntity
8
0
100
AcDbLine
10
45.922618070052856
20
-82.999999999999986
30
0
11
45.922618070052877
21
-79.393193452451456
31
0
0
LINE
5
608
100
AcDbEntity
8
0
100
AcDbLine
10
44.922618070052863
20
-79.409783061020107
30
0
11
44.922618070052863
21
-82.999999999999986
31
4.2779714045626146e-17
0
LINE
5
609
100
AcDbEntity
8
0
100
AcDbLine
10
44.922618070052863
20
-82.999999999999986
30
4.2779714045626146e-17
11
45.922618070052856
21
-82.999999999999986
31
0
0
LINE
5
610
100
AcDbEntity
8
0
100
AcDbLine
10
42.922618070052856
20
-196.56362248543695
30
0
11
42.922618070052863
21
-168
31
2.3920490830825458e-16
0
LINE
5
611
100
AcDbEntity
8
0
100
AcDbLine
10
42.922618070052863
20
-168
30
2.3920490830825458e-16
11
41.922618070052863
21
-167.99999999999997
31
0
0
LINE
5
612
100
AcDbEntity
8
0
100
AcDbLine
10
41.922618070052863
20
-167.99999999999997
30
0
11
41.92261807005287
21
-196.55363334458372
31
0
0
LINE
5
613
100
AcDbEntity
8
0
100
AcDbLine
10
74.922618070052764
20
-78.041788390156711
30
0
11
74.922618070052863
21
-83
31
-2.8451492109339145e-16
0
LINE
5
614
100
AcDbEntity
8
0
100
AcDbLine
10
74.922618070052863
20
-83
30
-2.8451492109339145e-16
11
75.92261807005282
21
-82.999999999999986
31
0
0
LINE
5
615
100
AcDbEntity
8
0
100
AcDbLine
10
75.92261807005282
20
-82.999999999999986
30
0
11
75.922618070052806
21
-77.96950816900177
31
0
0
LINE
5
616
100
AcDbEntity
8
0
100
AcDbLine
10
96.922618070052877
20
-76.218107589660548
30
-2.9674469720453857e-16
11
96.937816850459129
21
-76.216791005353571
31
0
0
SPLINE
5
617
100
AcDbEntity
8
0
100
AcDbSpline
70
0
71
3
72
8
73
4
74
0
42
0.000000001
43
0.0000000001
44
0.0000000001
40
6.019197280008588
40
6.019197280008588
40
6.019197280008588
40
6.019197280008588
40
6.1219166349730543
40
6.1219166349730543
40
6.1219166349730543
40
6.1219166349730543
10
38.922618069991401
20
-196.53696509951226
30
0
10
38.589650008766434
20
-196.53622455421501
30
0
10
38.256325379164771
20
-196.53585300828473
30
0
10
37.922618070052991
20
-196.53585300828473
30
0
0
LINE
5
618
100
AcDbEntity
8
0
100
AcDbLine
10
104.92261807005256
20
-82.999999999999829
30
0
11
104.92261807005261
21
-75.525112877330372
31
3.4512664603419266e-30
0
LINE
5
619
100
AcDbEntity
8
0
100
AcDbLine
10
105.92261807005255
20
-75.438488538289107
30
0
11
105.92261807005251
21
-82.999999999999844
31
1.9721522630525295e-30
0
LINE
5
620
100
AcDbEntity
8
0
100
AcDbLine
10
105.92261807005251
20
-82.999999999999844
30
1.9721522630525295e-30
11
104.92261807005256
21
-82.999999999999829
31
0
0
LINE
5
621
100
AcDbEntity
8
0
100
AcDbLine
10
110.92261807005255
20
-82.999999999999829
30
0
11
110.92261807005261
21
-75.00536684308274
31
2.9582283945787943e-30
0
LINE
5
622
100
AcDbEntity
8
0
100
AcDbLine
10
111.92261807005252
20
-82.999999999999829
30
0
11
110.92261807005255
21
-82.999999999999829
31
0
0
LINE
5
623
100
AcDbEntity
8
0
100
AcDbLine
10
111.92261807005264
20
-74.918742504041475
30
0
11
111.92261807005252
21
-82.999999999999829
31
0
0
LINE
5
624
100
AcDbEntity
8
0
100
AcDbLine
10
113.92261807005269
20
-107.99999999999983
30
0
11
113.92261807005252
21
-74.745493825958945
31
-2.9582283945787943e-30
0
LINE
5
625
100
AcDbEntity
8
0
100
AcDbLine
10
114.92261807005249
20
-74.658869486917666
30
0
11
114.92261807005266
21
-107.99999999999983
31
-1.9721522630525295e-30
0
LINE
5
626
100
AcDbEntity
8
0
100
AcDbLine
10
114.92261807005266
20
-107.99999999999983
30
-1.9721522630525295e-30
11
113.92261807005269
21
-107.99999999999983
31
0
0
LWPOLYLINE
5
627
100
AcDbEntity
8
0
100
AcDbPolyline
90
4
70
1
43
0.0
10
116.92261807005235
20
-132.99999999999983
10
116.92261807005266
20
-92.999999999999829
10
117.92261807005264
20
-92.999999999999844
10
117.92261807005232
20
-132.99999999999986
0
LWPOLYLINE
5
628
100
AcDbEntity
8
0
100
AcDbPolyline
90
4
70
1
43
0.0
10
119.92261807005278
20
-117.99999999999982
10
120.92261807005275
20
-117.99999999999983
10
120.92261807005261
20
-157.99999999999983
10
119.92261807005264
20
-157.99999999999983
0
LWPOLYLINE
5
629
100
AcDbEntity
8
0
100
AcDbPolyline
90
4
70
1
43
0.0
10
116.92261807005288
20
-142.99999999999986
10
117.92261807005286
20
-142.99999999999986
10
117.9226180700531
20
-182.99999999999986
10
116.92261807005312
20
-182.99999999999986
0
LWPOLYLINE
5
630
100
AcDbEntity
8
0
100
AcDbPolyline
90
4
70
1
43
0.0
10
113.92261807005276
20
-117.99999999999983
10
114.92261807005271
20
-117.99999999999983
10
114.92261807005264
20
-157.99999999999983
10
113.92261807005262
20
-157.99999999999983
0
LINE
5
631
100
AcDbEntity
8
0
100
AcDbLine
10
113.92261807005305
20
-167.99999999999983
30
0
11
114.92261807005299
21
-167.99999999999983
31
-9.85287982728387e-46
0
LINE
5
632
100
AcDbEntity
8
0
100
AcDbLine
10
113.92261807005295
20
-201.2545061740407
30
0
11
113.92261807005305
21
-167.99999999999983
31
0
0
LINE
5
633
100
AcDbEntity
8
0
100
AcDbLine
10
114.92261807005299
20
-167.99999999999983
30
-9.85287982728387e-46
11
114.92261807005289
21
-201.34113051308196
31
0
0
LINE
5
634
100
AcDbEntity
8
0
100
AcDbLine
10
111.92261807005316
20
-192.99999999999989
30
0
11
111.92261807005309
21
-201.0812574959582
31
0
0
LINE
5
635
100
AcDbEntity
8
0
100
AcDbLine
10
110.92261807005318
20
-192.99999999999983
30
0
11
111.92261807005316
21
-192.99999999999989
31
0
0
LINE
5
636
100
AcDbEntity
8
0
100
AcDbLine
10
110.92261807005312
20
-200.99463315691693
30
0
11
110.92261807005318
21
-192.99999999999983
31
0
0
LWPOLYLINE
5
637
100
AcDbEntity
8
0
100
AcDbPolyline
90
4
70
1
43
0.0
10
111.92261807005288
20
-142.99999999999986
10
111.92261807005309
20
-182.99999999999986
10
110.92261807005312
20
-182.99999999999986
10
110.92261807005289
20
-142.99999999999986
0
LINE
5
638
100
AcDbEntity
8
0
100
AcDbLine
10
108.92261807005298
20
-167.99999999999983
30
0
11
108.92261807005286
21
-200.82138447883437
31
0
0
LINE
5
639
100
AcDbEntity
8
0
100
AcDbLine
10
107.92261807005289
20
-200.73476013979308
30
0
11
107.92261807005301
21
-167.99999999999983
31
0
0
LINE
5
640
100
AcDbEntity
8
0
100
AcDbLine
10
107.92261807005301
20
-167.99999999999983
30
0
11
108.92261807005298
21
-167.99999999999983
31
0
0
LINE
5
641
100
AcDbEntity
8
0
100
AcDbLine
10
104.92261807005318
20
-192.99999999999986
30
0
11
105.92261807005315
21
-192.99999999999989
31
0
0
LINE
5
642
100
AcDbEntity
8
0
100
AcDbLine
10
104.92261807005309
20
-200.47488712266932
30
0
11
104.92261807005318
21
-192.99999999999986
31
0
0
LINE
5
643
100
AcDbEntity
8
0
100
AcDbLine
10
105.92261807005315
20
-192.99999999999989
30
0
11
105.92261807005308
21
-200.56151146171061
31
0
0
LINE
5
644
100
AcDbEntity
8
0
100
AcDbLine
10
108.92261807005248
20
-75.178615521165298
30
0
11
108.92261807005266
21
-107.99999999999983
31
-1.9721522630525295e-30
0
LINE
5
645
100
AcDbEntity
8
0
100
AcDbLine
10
108.92261807005266
20
-107.99999999999983
30
-1.9721522630525295e-30
11
107.92261807005268
21
-107.99999999999983
31
-9.85287982728387e-46
0
LINE
5
646
100
AcDbEntity
8
0
100
AcDbLine
10
107.92261807005268
20
-107.99999999999983
30
-9.85287982728387e-46
11
107.92261807005247
21
-75.265239860206563
31
3.944304526105059e-30
0
LWPOLYLINE
5
647
100
AcDbEntity
8
0
100
AcDbPolyline
90
4
70
1
43
0.0
10
110.92261807005265
20
-92.999999999999829
10
111.92261807005264
20
-92.999999999999858
10
111.92261807005235
20
-132.99999999999986
10
110.92261807005232
20
-132.99999999999983
0
LINE
5
648
100
AcDbEntity
8
0
100
AcDbLine
10
-54.922618070052991
20
-75.525112877330685
30
0
11
-54.922618070052884
21
-82.999999999999986
31
-9.8607613152626476e-31
0
LINE
5
649
100
AcDbEntity
8
0
100
AcDbLine
10
-55.922618070052863
20
-83
30
0
11
-55.922618070052934
21
-75.43848853828942
31
-4.9303806576313238e-31
0
LINE
5
650
100
AcDbEntity
8
0
100
AcDbLine
10
-54.922618070052884
20
-82.999999999999986
30
-9.8607613152626476e-31
11
-55.922618070052863
21
-83
31
0
0
LINE
5
651
100
AcDbEntity
8
0
100
AcDbLine
10
-60.922618070053005
20
-75.005366843083095
30
0
11
-60.922618070052863
21
-83
31
4.9303806576313238e-31
0
LINE
5
652
100
AcDbEntity
8
0
100
AcDbLine
10
-61.922618070052877
20
-83.000000000000043
30
0
11
-61.922618070052984
21
-74.91874250404183
31
4.9303806576313238e-31
0
LINE
5
653
100
AcDbEntity
8
0
100
AcDbLine
10
-60.922618070052863
20
-83
30
4.9303806576313238e-31
11
-61.922618070052877
21
-83.000000000000043
31
0
0
LINE
5
654
100
AcDbEntity
8
0
100
AcDbLine
10
-57.922618070052856
20
-75.26523986020689
30
0
11
-57.92261807005282
21
-108
31
1.9721522630525295e-30
0
LINE
5
655
100
AcDbEntity
8
0
100
AcDbLine
10
-57.92261807005282
20
-108
30
1.9721522630525295e-30
11
-58.922618070052799
21
-108
31
-9.85287982728387e-46
0
LINE
5
656
100
AcDbEntity
8
0
100
AcDbLine
10
-58.922618070052799
20
-108
30
-9.85287982728387e-46
11
-58.922618070052835
21
-75.178615521165625
31
0
0
LINE
5
657
100
AcDbEntity
8
0
100
AcDbLine
10
-63.92261807005287
20
-74.745493825959301
30
0
11
-63.92261807005287
21
-108.00000000000004
31
1.9721522630525295e-30
0
LINE
5
658
100
AcDbEntity
8
0
100
AcDbLine
10
-63.92261807005287
20
-108.00000000000004
30
1.9721522630525295e-30
11
-64.922618070052849
21
-108.00000000000004
31
-9.85287982728387e-46
0
LINE
5
659
100
AcDbEntity
8
0
100
AcDbLine
10
-64.922618070052849
20
-108.00000000000004
30
-9.85287982728387e-46
11
-64.922618070052849
21
-74.65886948691805
31
-1.9721522630525295e-30
0
LWPOLYLINE
5
660
100
AcDbEntity
8
0
100
AcDbPolyline
90
4
70
1
43
0.0
10
-67.922618070052891
20
-93.000000000000085
10
-66.92261807005292
20
-93.000000000000057
10
-66.92261807005238
20
-133.00000000000006
10
-67.922618070052351
20
-133.00000000000009
0
LWPOLYLINE
5
661
100
AcDbEntity
8
0
100
AcDbPolyline
90
4
70
1
43
0.0
10
-61.922618070052913
20
-93.000000000000043
10
-60.922618070052899
20
-93.000000000000028
10
-60.922618070052366
20
-133.00000000000006
10
-61.92261807005238
20
-133.00000000000006
0
LWPOLYLINE
5
662
100
AcDbEntity
8
0
100
AcDbPolyline
90
4
70
1
43
0.0
10
-64.922618070052891
20
-118.00000000000004
10
-63.922618070052906
20
-118.00000000000003
10
-63.92261807005255
20
-158.00000000000006
10
-64.922618070052522
20
-158.00000000000006
0
LWPOLYLINE
5
663
100
AcDbEntity
8
0
100
AcDbPolyline
90
4
70
1
43
0.0
10
-70.922618070052891
20
-118.00000000000009
10
-69.92261807005292
20
-118.00000000000006
10
-69.922618070052565
20
-158.00000000000006
10
-70.92261807005255
20
-158.00000000000009
0
LWPOLYLINE
5
664
100
AcDbEntity
8
0
100
AcDbPolyline
90
4
70
1
43
0.0
10
-67.922618070052891
20
-143.00000000000009
10
-66.922618070052877
20
-143.00000000000009
10
-66.92261807005292
20
-183.00000000000009
10
-67.922618070052891
20
-183.00000000000009
0
LWPOLYLINE
5
665
100
AcDbEntity
8
0
100
AcDbPolyline
90
4
70
1
43
0.0
10
-61.922618070052877
20
-143.00000000000006
10
-60.922618070052899
20
-143.00000000000006
10
-60.922618070052899
20
-183.00000000000006
10
-61.922618070052877
20
-183.00000000000009
0
LINE
5
666
100
AcDbEntity
8
0
100
AcDbLine
10
-64.922618070052849
20
-168.00000000000006
30
0
11
-63.922618070052906
21
-168.00000000000006
31
0
0
LINE
5
667
100
AcDbEntity
8
0
100
AcDbLine
10
-63.922618070052906
20
-168.00000000000006
30
0
11
-63.922618070052586
21
-201.25450617404107
31
0
0
LINE
5
668
100
AcDbEntity
8
0
100
AcDbLine
10
-64.922618070052522
20
-201.34113051308233
30
0
11
-64.922618070052849
21
-168.00000000000006
31
0
0
LINE
5
669
100
AcDbEntity
8
0
100
AcDbLine
10
-58.92261807005287
20
-168.00000000000006
30
0
11
-57.922618070052856
21
-168.00000000000006
31
9.85287982728387e-46
0
LINE
5
670
100
AcDbEntity
8
0
100
AcDbLine
10
-57.922618070052856
20
-168.00000000000006
30
9.85287982728387e-46
11
-57.922618070052536
21
-200.73476013979345
31
0
0
LINE
5
671
100
AcDbEntity
8
0
100
AcDbLine
10
-58.92261807005255
20
-200.82138447883472
30
0
11
-58.92261807005287
21
-168.00000000000006
31
0
0
LINE
5
672
100
AcDbEntity
8
0
100
AcDbLine
10
-61.922618070052877
20
-193.00000000000006
30
0
11
-60.922618070052899
21
-193.00000000000006
31
0
0
LINE
5
673
100
AcDbEntity
8
0
100
AcDbLine
10
-61.922618070052771
20
-201.08125749595857
30
0
11
-61.922618070052877
21
-193.00000000000006
31
0
0
LINE
5
674
100
AcDbEntity
8
0
100
AcDbLine
10
-60.922618070052899
20
-193.00000000000006
30
0
11
-60.922618070052756
21
-200.9946331569173
31
0
0
LINE
5
675
100
AcDbEntity
8
0
100
AcDbLine
10
-55.922618070052863
20
-193.00000000000006
30
0
11
-54.922618070052884
21
-193.00000000000006
31
0
0
LINE
5
676
100
AcDbEntity
8
0
100
AcDbLine
10
-54.922618070052884
20
-193.00000000000006
30
0
11
-54.922618070052778
21
-200.47488712266966
31
-1.9721522630525295e-30
0
LINE
5
677
100
AcDbEntity
8
0
100
AcDbLine
10
-55.922618070052756
20
-200.56151146171089
30
0
11
-55.922618070052863
21
-193.00000000000006
31
0
0
LWPOLYLINE
5
678
100
AcDbEntity
8
0
100
AcDbPolyline
90
4
70
1
43
0.0
10
275.19567142492269
20
-70.060205901995772
10
247.30013674350957
20
-72.476638155976033
10
247.01963705306974
20
-69.238521784245791
10
274.9151717344829
20
-66.822089530265529
0
LWPOLYLINE
5
679
100
AcDbEntity
8
0
100
AcDbPolyline
90
4
70
1
43
0.0
10
217.41206387056693
20
-75.065672713812006
10
189.51652918915372
20
-77.482104967792253
10
189.23602949871389
20
-74.243988596062024
10
217.13156418012704
20
-71.827556342081763
0
LWPOLYLINE
5
680
100
AcDbEntity
8
0
100
AcDbPolyline
90
4
70
1
43
0.0
10
159.6284563162111
20
-80.071139525628112
10
131.73292163479798
20
-82.487571779608515
10
131.45242194435806
20
-79.249455407878273
10
159.34795662577125
20
-76.833023153898012
0
LWPOLYLINE
5
681
100
AcDbEntity
8
0
100
AcDbPolyline
90
4
70
1
43
0.0
10
247.30013674350977
20
-203.52336184402336
10
275.19567142492298
20
-205.93979409800346
10
274.91517173448312
20
-209.17791046973377
10
247.01963705306994
20
-206.76147821575364
0
LWPOLYLINE
5
682
100
AcDbEntity
8
0
100
AcDbPolyline
90
4
70
1
43
0.0
10
217.41206387056712
20
-200.93432728618745
10
217.1315641801273
20
-204.17244365791774
10
189.23602949871409
20
-201.75601140393758
10
189.51652918915391
20
-198.51789503220732
0
LWPOLYLINE
5
683
100
AcDbEntity
8
0
100
AcDbPolyline
90
4
70
1
43
0.0
10
159.62845631621133
20
-195.92886047437156
10
159.34795662577145
20
-199.1669768461017
10
131.45242194435826
20
-196.75054459212149
10
131.73292163479817
20
-193.51242822039126
0
LWPOLYLINE
5
684
100
AcDbEntity
8
0
100
AcDbPolyline
90
4
70
1
43
0.0
10
-81.732921634798217
20
-82.487571779608828
10
-109.62845631621143
20
-80.071139525628723
10
-109.3479566257716
20
-76.833023153898466
10
-81.452421944358392
20
-79.249455407878571
0
LWPOLYLINE
5
685
100
AcDbEntity
8
0
100
AcDbPolyline
90
4
70
1
43
0.0
10
-139.23602949871426
20
-74.24398859606265
10
-139.51652918915411
20
-77.482104967792878
10
-167.41206387056729
20
-75.065672713812802
10
-167.13156418012744
20
-71.827556342082545
0
LWPOLYLINE
5
686
100
AcDbEntity
8
0
100
AcDbPolyline
90
4
70
1
43
0.0
10
-224.91517173448329
20
-66.822089530266624
10
-197.01963705307011
20
-69.238521784246728
10
-197.30013674350997
20
-72.476638155976971
10
-225.19567142492315
20
-70.060205901996866
0
LWPOLYLINE
5
687
100
AcDbEntity
8
0
100
AcDbPolyline
90
4
70
1
43
0.0
10
-109.628456316211
20
-195.9288604743719
10
-81.73292163479779
20
-193.51242822039157
10
-81.452421944357951
20
-196.75054459212186
10
-109.34795662577115
20
-199.16697684610213
0
LWPOLYLINE
5
688
100
AcDbEntity
8
0
100
AcDbPolyline
90
4
70
1
43
0.0
10
-167.41206387056678
20
-200.93432728618822
10
-139.51652918915363
20
-198.51789503220795
10
-139.23602949871378
20
-201.75601140393815
10
-167.13156418012693
20
-204.17244365791851
0
LWPOLYLINE
5
689
100
AcDbEntity
8
0
100
AcDbPolyline
90
4
70
1
43
0.0
10
-225.19567142492264
20
-205.9397940980046
10
-197.30013674350946
20
-203.52336184402432
10
-197.01963705306963
20
-206.76147821575455
10
-224.91517173448275
20
-209.17791046973485
0
LWPOLYLINE
5
690
100
AcDbEntity
8
0
100
AcDbPolyline
90
4
70
1
43
0.0
10
-115.90452101851746
20
67.768512639890076
10
-115.90452101851746
20
70.768512639890076
10
-70.904521018517471
20
70.768512639890048
10
-70.904521018517471
20
67.768512639890048
0
LWPOLYLINE
5
691
100
AcDbEntity
8
0
100
AcDbPolyline
90
4
70
1
43
0.0
10
-115.9045210185175
20
-39.231487360109931
10
-115.9045210185175
20
-36.231487360109931
10
-70.904521018517499
20
-36.231487360109952
10
-70.904521018517499
20
-39.231487360109945
0
LINE
5
692
100
AcDbEntity
8
0
100
AcDbLine
10
167.3988662811621
20
-219.16369554181114
30
0
11
170.38745037543734
21
-218.90222831356817
31
0
0
LINE
5
693
100
AcDbEntity
8
0
100
AcDbLine
10
8.642149519846285
20
-219.40160466261864
30
0
11
11.630733614121516
21
-219.14013743437567
31
0
0
ENDSEC
0
SECTION
2
OBJECTS
0
DICTIONARY
5
C
100
AcDbDictionary
3
ACAD_GROUP
350
D
3
ACAD_MLINESTYLE
350
17
0
DICTIONARY
5
D
100
AcDbDictionary
0
DICTIONARY
5
1A
330
C
100
AcDbDictionary
0
DICTIONARY
5
17
100
AcDbDictionary
0
ENDSEC
0
EOF
